<svg xmlns="http://www.w3.org/2000/svg" viewBox="0 0 1000 163.6"><g fill="#85cba8"><circle cx="27.2" cy="44.6" r="6.9"/><path d="M34.6 53.4H19.2c-4.1 0-8.7 4.6-8.8 8.7V83.2c0 1.5 1.2 2.8 2.8 2.8 1.5 0 2.8-1.2 2.8-2.8V64.5h2.2v54c0 1.9 1.7 3.5 3.8 3.5s3.8-1.6 3.8-3.5V86.8H28v31.7c0 1.9 1.7 3.5 3.8 3.5s3.8-1.6 3.8-3.5v-54h2.2v18.7c0 1.6 1.3 2.8 2.8 2.8 1.6 0 2.8-1.3 2.8-2.8V62.1c-.1-4.1-4.7-8.7-8.8-8.7z"/></g><path fill="none" stroke="#939598" stroke-miterlimit="10" stroke-width="3" d="m69.6 81.7h216.2"/><path fill="#939598" d="M276.4 81.4l-.1-9.2 8.1 4.5 8 4.6-8 4.7-7.9 4.6zM73.6 81.3l.1 9.2-8.1-4.5-8-4.6 8-4.7 7.9-4.6z"/><linearGradient id="a" x1="325.12" x2="444.48" y1="577.27" y2="477.13" gradientTransform="translate(0 -446)" gradientUnits="userSpaceOnUse"><stop offset="0" stop-color="#f3797a"/><stop offset="1" stop-color="#f89521"/></linearGradient><circle cx="384.8" cy="81.2" r="77.9" fill="url(#a)" stroke="#fff" stroke-miterlimit="10" stroke-width="3.149"/><g fill="#fff"><path d="M349.328 97.713c-1.073 0-1.917.38-2.531 1.141-.615.761-.922 1.81-.922 3.148 0 1.401.295 2.461.887 3.18.591.719 1.446 1.078 2.566 1.078.484 0 .953-.048 1.406-.145s.924-.22 1.414-.371v1.602c-.896.339-1.912.508-3.047.508-1.672 0-2.956-.507-3.852-1.52-.896-1.013-1.344-2.462-1.344-4.348 0-1.188.217-2.227.652-3.117.435-.891 1.063-1.573 1.887-2.047.823-.474 1.789-.711 2.898-.711 1.167 0 2.245.245 3.234.734l-.672 1.555c-.386-.183-.793-.343-1.223-.48s-.879-.207-1.353-.207zM356.25 107.697h-1.836V95.541h1.836v12.156zM366.539 103.361c0 1.411-.362 2.513-1.086 3.305-.724.792-1.732 1.188-3.023 1.188-.808 0-1.521-.183-2.141-.547a3.605 3.605 0 0 1-1.43-1.57c-.333-.683-.5-1.474-.5-2.375 0-1.401.359-2.495 1.078-3.281s1.731-1.18 3.039-1.18c1.25 0 2.239.402 2.969 1.207.729.804 1.094 1.889 1.094 3.253zm-6.289 0c0 1.995.737 2.992 2.211 2.992 1.458 0 2.188-.997 2.188-2.992 0-1.974-.734-2.961-2.203-2.961-.771 0-1.33.255-1.676.766-.347.511-.52 1.242-.52 2.195zM374.742 107.697l-.258-1.133h-.094a2.605 2.605 0 0 1-1.09.945c-.472.229-1.009.344-1.613.344-1.047 0-1.828-.261-2.344-.781s-.773-1.31-.773-2.367v-5.648h1.852v5.328c0 .661.135 1.157.406 1.488.271.331.695.496 1.273.496.771 0 1.337-.23 1.699-.691.362-.461.543-1.233.543-2.316v-4.305h1.844v8.641h-1.445zM381.719 107.854c-1.078 0-1.919-.391-2.523-1.172-.604-.781-.906-1.878-.906-3.289 0-1.417.306-2.52.918-3.309.612-.789 1.459-1.184 2.543-1.184 1.135 0 2 .419 2.594 1.258h.094c-.089-.62-.133-1.109-.133-1.469v-3.148h1.844v12.156h-1.438l-.32-1.133h-.086c-.59.86-1.452 1.29-2.587 1.29zm.492-1.485c.755 0 1.305-.212 1.648-.637s.521-1.113.531-2.066v-.258c0-1.089-.177-1.862-.531-2.32-.354-.458-.909-.688-1.664-.688-.646 0-1.144.262-1.492.785-.349.523-.523 1.27-.523 2.238 0 .958.169 1.688.508 2.191.338.504.846.755 1.523.755zM393.109 100.447H391v7.25h-1.844v-7.25h-1.422v-.859l1.422-.562v-.562c0-1.021.239-1.777.719-2.27.479-.492 1.211-.738 2.195-.738.646 0 1.281.106 1.906.32l-.484 1.391a4.23 4.23 0 0 0-1.297-.219c-.417 0-.72.129-.91.387-.19.258-.285.645-.285 1.16v.562h2.109v1.39zm3.305 7.25h-1.836V95.541h1.836v12.156zM404.453 107.697l-.367-1.203h-.062c-.417.526-.836.884-1.258 1.074s-.964.285-1.625.285c-.849 0-1.512-.229-1.988-.688s-.715-1.106-.715-1.945c0-.891.331-1.562.992-2.016.661-.453 1.669-.7 3.023-.742l1.492-.047v-.461c0-.552-.129-.965-.387-1.238s-.658-.41-1.199-.41c-.443 0-.867.065-1.273.195s-.797.284-1.172.461l-.594-1.312a6.391 6.391 0 0 1 1.539-.559 7.054 7.054 0 0 1 1.578-.191c1.099 0 1.928.239 2.488.719.56.479.84 1.231.84 2.258v5.82h-1.312zm-2.734-1.25c.667 0 1.202-.187 1.605-.559.403-.372.605-.895.605-1.566v-.75l-1.109.047c-.865.031-1.494.176-1.887.434-.394.258-.59.652-.59 1.184 0 .386.114.684.344.895.23.21.573.315 1.032.315zM412.711 98.9c.37 0 .674.026.914.078l-.18 1.711a3.498 3.498 0 0 0-.812-.094c-.734 0-1.33.239-1.785.719-.456.479-.684 1.102-.684 1.867v4.516h-1.836v-8.641h1.438l.242 1.523h.094c.286-.516.66-.925 1.121-1.227s.957-.452 1.488-.452zM419 107.854c-1.344 0-2.395-.392-3.152-1.176s-1.137-1.863-1.137-3.238c0-1.411.352-2.521 1.055-3.328s1.669-1.211 2.898-1.211c1.141 0 2.042.347 2.703 1.039s.992 1.646.992 2.859v.992h-5.758c.026.839.252 1.483.68 1.934.427.45 1.028.676 1.805.676.51 0 .985-.048 1.426-.145.44-.097.913-.257 1.418-.48v1.492a5.64 5.64 0 0 1-1.359.453 8.313 8.313 0 0 1-1.571.133zm-.336-7.563c-.583 0-1.051.185-1.402.555s-.562.909-.629 1.617h3.922c-.011-.714-.183-1.254-.516-1.621s-.792-.551-1.375-.551z"/><path d="M344.288 124.753c-1.078 0-1.919-.391-2.523-1.172-.604-.781-.906-1.878-.906-3.289 0-1.417.306-2.52.918-3.309.612-.789 1.459-1.184 2.543-1.184 1.135 0 2 .419 2.594 1.258h.094c-.089-.62-.133-1.109-.133-1.469v-3.148h1.844v12.156h-1.438l-.32-1.133h-.086c-.59.86-1.452 1.29-2.587 1.29zm.492-1.484c.755 0 1.305-.212 1.648-.637s.521-1.113.531-2.066v-.258c0-1.089-.177-1.862-.531-2.32-.354-.458-.909-.688-1.664-.688-.646 0-1.144.262-1.492.785-.349.523-.523 1.27-.523 2.238 0 .958.169 1.688.508 2.191.338.504.846.755 1.523.755zM356.749 124.597l-.367-1.203h-.062c-.417.526-.836.884-1.258 1.074s-.964.285-1.625.285c-.849 0-1.512-.229-1.988-.688s-.715-1.106-.715-1.945c0-.891.331-1.562.992-2.016.661-.453 1.669-.7 3.023-.742l1.492-.047v-.461c0-.552-.129-.965-.387-1.238s-.658-.41-1.199-.41c-.443 0-.867.065-1.273.195s-.797.284-1.172.461l-.594-1.312a6.391 6.391 0 0 1 1.539-.559 7.054 7.054 0 0 1 1.578-.191c1.099 0 1.928.239 2.488.719.56.479.84 1.231.84 2.258v5.82h-1.312zm-2.735-1.25c.667 0 1.202-.187 1.605-.559.403-.372.605-.895.605-1.566v-.75l-1.109.047c-.865.031-1.494.176-1.887.434-.394.258-.59.652-.59 1.184 0 .386.114.684.344.895.23.209.574.315 1.032.315zM363.842 123.269c.448 0 .896-.07 1.344-.211v1.383c-.203.089-.465.163-.785.223s-.652.09-.996.09c-1.74 0-2.609-.917-2.609-2.75v-4.656h-1.18v-.812l1.266-.672.625-1.828h1.133v1.922h2.461v1.391h-2.461v4.625c0 .442.11.77.332.98.22.209.511.315.87.315zM372.319 124.597l-.367-1.203h-.062c-.417.526-.836.884-1.258 1.074s-.964.285-1.625.285c-.849 0-1.512-.229-1.988-.688s-.715-1.106-.715-1.945c0-.891.331-1.562.992-2.016.661-.453 1.669-.7 3.023-.742l1.492-.047v-.461c0-.552-.129-.965-.387-1.238s-.658-.41-1.199-.41c-.443 0-.867.065-1.273.195s-.797.284-1.172.461l-.594-1.312a6.391 6.391 0 0 1 1.539-.559 7.054 7.054 0 0 1 1.578-.191c1.099 0 1.928.239 2.488.719.56.479.84 1.231.84 2.258v5.82h-1.312zm-2.735-1.25c.667 0 1.202-.187 1.605-.559.403-.372.605-.895.605-1.566v-.75l-1.109.047c-.865.031-1.494.176-1.887.434-.394.258-.59.652-.59 1.184 0 .386.114.684.344.895.23.209.574.315 1.032.315zM383.834 124.753c-1.308 0-2.301-.382-2.98-1.145s-1.02-1.858-1.02-3.285c0-1.453.355-2.57 1.066-3.352s1.738-1.172 3.082-1.172c.911 0 1.731.169 2.461.508l-.555 1.477c-.776-.302-1.417-.453-1.922-.453-1.495 0-2.242.992-2.242 2.977 0 .969.186 1.696.559 2.184.372.487.918.73 1.637.73.817 0 1.591-.203 2.32-.609v1.602a3.64 3.64 0 0 1-1.051.414 6.386 6.386 0 0 1-1.355.124zM392.045 124.753c-1.344 0-2.395-.392-3.152-1.176s-1.137-1.863-1.137-3.238c0-1.411.352-2.521 1.055-3.328s1.669-1.211 2.898-1.211c1.141 0 2.042.347 2.703 1.039s.992 1.646.992 2.859v.992h-5.758c.026.839.252 1.483.68 1.934.427.45 1.028.676 1.805.676.51 0 .985-.048 1.426-.145.44-.097.913-.257 1.418-.48v1.492a5.64 5.64 0 0 1-1.359.453 8.306 8.306 0 0 1-1.571.133zm-.336-7.563c-.583 0-1.051.185-1.402.555s-.562.909-.629 1.617h3.922c-.011-.714-.183-1.254-.516-1.621s-.792-.551-1.375-.551zM405.092 124.597h-1.844v-5.312c0-.667-.134-1.164-.402-1.492-.269-.328-.694-.492-1.277-.492-.776 0-1.344.229-1.703.688s-.539 1.227-.539 2.305v4.305h-1.836v-8.641h1.438l.258 1.133h.094c.26-.411.63-.729 1.109-.953a3.716 3.716 0 0 1 1.594-.336c2.073 0 3.109 1.055 3.109 3.164v5.631zM410.866 123.269c.448 0 .896-.07 1.344-.211v1.383c-.203.089-.465.163-.785.223s-.652.09-.996.09c-1.74 0-2.609-.917-2.609-2.75v-4.656h-1.18v-.812l1.266-.672.625-1.828h1.133v1.922h2.461v1.391h-2.461v4.625c0 .442.11.77.332.98.22.209.51.315.87.315zM417.709 124.753c-1.344 0-2.395-.392-3.152-1.176s-1.137-1.863-1.137-3.238c0-1.411.352-2.521 1.055-3.328s1.669-1.211 2.898-1.211c1.141 0 2.042.347 2.703 1.039s.992 1.646.992 2.859v.992h-5.758c.026.839.252 1.483.68 1.934.427.45 1.028.676 1.805.676.51 0 .985-.048 1.426-.145.44-.097.913-.257 1.418-.48v1.492a5.64 5.64 0 0 1-1.359.453 8.306 8.306 0 0 1-1.571.133zm-.335-7.563c-.583 0-1.051.185-1.402.555s-.562.909-.629 1.617h3.922c-.011-.714-.183-1.254-.516-1.621-.334-.367-.792-.551-1.375-.551zM427.538 115.8c.37 0 .674.026.914.078l-.18 1.711a3.498 3.498 0 0 0-.812-.094c-.734 0-1.33.239-1.785.719-.456.479-.684 1.102-.684 1.867v4.516h-1.836v-8.641h1.438l.242 1.523h.094c.286-.516.66-.925 1.121-1.227s.956-.452 1.488-.452z"/></g><path fill="#fff" d="M410.9 83.4c6.6 0 11.9-5.3 11.9-11.9s-5.3-11.9-11.9-11.9V59c0-11.3-9.1-20.4-20.4-20.4-9.2 0-17 6.1-19.5 14.5-1.5-.7-3.3-1.1-5.1-1.1-6.6 0-11.9 5.3-11.9 11.9 0 1.5.3 3 .8 4.3h-.4c-4.2 0-7.6 3.4-7.6 7.6s3.4 7.6 7.6 7.6h56.5z"/><g fill="#7c7d7d"><path d="M95.597 117.273h1.251l-3.603 9.994h-1.148l-3.582-9.994h1.23l2.297 6.467c.264.743.474 1.465.629 2.167.164-.738.378-1.475.643-2.208l2.283-6.426zM97.956 117.745c0-.26.064-.45.191-.571a.671.671 0 0 1 .479-.181c.182 0 .339.062.472.185s.198.312.198.567-.066.445-.198.571a.664.664 0 0 1-.472.188.655.655 0 0 1-.479-.188c-.127-.126-.191-.316-.191-.571zm1.23 9.523h-1.135v-7.492h1.135v7.492zM106.425 125.224c0 .697-.26 1.235-.779 1.613s-1.249.567-2.188.567c-.994 0-1.768-.157-2.324-.472v-1.053c.36.183.746.326 1.159.431s.81.157 1.193.157c.592 0 1.048-.095 1.367-.284.319-.188.479-.477.479-.864 0-.292-.126-.541-.379-.749-.253-.207-.746-.452-1.48-.734-.697-.26-1.193-.486-1.487-.68-.294-.194-.513-.414-.656-.66s-.215-.54-.215-.882c0-.61.249-1.093.745-1.446.497-.353 1.178-.529 2.044-.529a5.98 5.98 0 0 1 2.365.492l-.403.923c-.752-.31-1.433-.465-2.044-.465-.538 0-.943.084-1.217.253s-.41.401-.41.697c0 .2.051.371.154.513s.268.275.496.403.666.312 1.312.554c.889.323 1.489.649 1.801.978s.467.74.467 1.237zM108.175 117.745c0-.26.064-.45.191-.571a.671.671 0 0 1 .479-.181c.182 0 .339.062.472.185s.198.312.198.567-.066.445-.198.571a.664.664 0 0 1-.472.188.655.655 0 0 1-.479-.188c-.127-.126-.191-.316-.191-.571zm1.231 9.523h-1.135v-7.492h1.135v7.492zM114.232 126.468c.201 0 .394-.015.581-.044.187-.03.335-.061.444-.093v.868a2.02 2.02 0 0 1-.543.146 4.061 4.061 0 0 1-.646.059c-1.449 0-2.174-.764-2.174-2.29v-4.457h-1.073v-.547l1.073-.472.479-1.6h.656v1.736h2.174v.882h-2.174v4.409c0 .451.107.798.321 1.039s.508.364.882.364zM123.221 123.515c0 1.222-.308 2.175-.923 2.86-.615.687-1.465 1.029-2.55 1.029-.67 0-1.265-.157-1.784-.472s-.92-.766-1.203-1.354-.424-1.276-.424-2.064c0-1.222.305-2.173.916-2.854s1.458-1.021 2.543-1.021c1.048 0 1.881.349 2.499 1.046s.926 1.64.926 2.83zm-5.708 0c0 .957.191 1.687.574 2.188s.946.752 1.688.752 1.307-.249 1.692-.749c.385-.498.578-1.229.578-2.19 0-.952-.192-1.676-.578-2.171-.385-.494-.954-.741-1.706-.741-.743 0-1.303.244-1.682.731s-.566 1.214-.566 2.18zM128.628 119.639c.333 0 .631.027.896.082l-.157 1.053a3.89 3.89 0 0 0-.82-.103c-.606 0-1.125.246-1.555.738s-.646 1.105-.646 1.839v4.02h-1.135v-7.492h.937l.13 1.388h.055c.278-.487.613-.863 1.005-1.128s.821-.397 1.29-.397zM137.556 127.404c-1.084 0-1.924-.334-2.519-1.002-.595-.667-.892-1.611-.892-2.833 0-1.253.302-2.222.906-2.905s1.464-1.025 2.581-1.025c.36 0 .72.039 1.08.116s.643.169.848.273l-.349.964a5.228 5.228 0 0 0-.82-.25 3.728 3.728 0 0 0-.786-.099c-1.522 0-2.283.971-2.283 2.912 0 .921.186 1.627.557 2.119s.922.738 1.651.738c.625 0 1.265-.135 1.921-.403v1.005c-.503.26-1.134.39-1.895.39zM147.694 123.515c0 1.222-.308 2.175-.923 2.86-.615.687-1.465 1.029-2.55 1.029-.67 0-1.265-.157-1.784-.472s-.92-.766-1.203-1.354-.424-1.276-.424-2.064c0-1.222.305-2.173.916-2.854s1.458-1.021 2.543-1.021c1.048 0 1.881.349 2.499 1.046s.926 1.64.926 2.83zm-5.708 0c0 .957.191 1.687.574 2.188s.946.752 1.688.752 1.307-.249 1.692-.749c.385-.498.578-1.229.578-2.19 0-.952-.192-1.676-.578-2.171-.385-.494-.954-.741-1.706-.741-.743 0-1.303.244-1.682.731s-.566 1.214-.566 2.18zM154.81 127.268v-4.847c0-.61-.139-1.066-.417-1.367s-.713-.451-1.306-.451c-.784 0-1.358.212-1.723.636s-.547 1.123-.547 2.099v3.931h-1.135v-7.492h.923l.185 1.025h.055c.232-.369.558-.655.978-.857a3.171 3.171 0 0 1 1.401-.305c.902 0 1.582.218 2.037.652.456.436.684 1.132.684 2.089v4.888h-1.135zM163.403 127.268v-4.847c0-.61-.139-1.066-.417-1.367s-.713-.451-1.306-.451c-.784 0-1.358.212-1.723.636s-.547 1.123-.547 2.099v3.931h-1.135v-7.492h.923l.185 1.025h.055c.232-.369.558-.655.978-.857a3.171 3.171 0 0 1 1.401-.305c.902 0 1.582.218 2.037.652.456.436.684 1.132.684 2.089v4.888h-1.135zM170.034 127.404c-1.107 0-1.981-.337-2.622-1.012s-.96-1.611-.96-2.81c0-1.208.297-2.167.892-2.878s1.394-1.066 2.396-1.066c.939 0 1.682.309 2.229.926.547.618.82 1.433.82 2.444v.718h-5.161c.023.88.245 1.547.667 2.003s1.015.684 1.781.684c.807 0 1.604-.169 2.393-.506v1.012c-.401.173-.78.298-1.138.372-.36.076-.791.113-1.297.113zm-.308-6.815c-.602 0-1.081.196-1.439.588s-.568.935-.632 1.627h3.917c0-.716-.16-1.264-.479-1.644-.319-.381-.775-.571-1.367-.571zM177.717 127.404c-1.084 0-1.924-.334-2.519-1.002-.595-.667-.892-1.611-.892-2.833 0-1.253.302-2.222.906-2.905s1.464-1.025 2.581-1.025c.36 0 .72.039 1.08.116s.643.169.848.273l-.349.964a5.228 5.228 0 0 0-.82-.25 3.728 3.728 0 0 0-.786-.099c-1.522 0-2.283.971-2.283 2.912 0 .921.186 1.627.557 2.119s.922.738 1.651.738c.625 0 1.265-.135 1.921-.403v1.005c-.503.26-1.133.39-1.895.39zM183.808 126.468c.201 0 .394-.015.581-.044.187-.03.335-.061.444-.093v.868a2.02 2.02 0 0 1-.543.146 4.061 4.061 0 0 1-.646.059c-1.449 0-2.174-.764-2.174-2.29v-4.457h-1.073v-.547l1.073-.472.479-1.6h.656v1.736h2.174v.882h-2.174v4.409c0 .451.107.798.321 1.039s.509.364.882.364zM191.164 125.224c0 .697-.26 1.235-.779 1.613s-1.249.567-2.188.567c-.994 0-1.768-.157-2.324-.472v-1.053c.36.183.746.326 1.159.431s.81.157 1.193.157c.592 0 1.048-.095 1.367-.284.319-.188.479-.477.479-.864 0-.292-.126-.541-.379-.749-.253-.207-.746-.452-1.48-.734-.697-.26-1.193-.486-1.487-.68-.294-.194-.513-.414-.656-.66s-.215-.54-.215-.882c0-.61.249-1.093.745-1.446.497-.353 1.178-.529 2.044-.529a5.98 5.98 0 0 1 2.365.492l-.403.923c-.752-.31-1.433-.465-2.044-.465-.538 0-.943.084-1.217.253s-.41.401-.41.697c0 .2.051.371.154.513s.268.275.496.403.666.312 1.312.554c.889.323 1.489.649 1.801.978s.467.74.467 1.237zM199.066 126.468c.201 0 .394-.015.581-.044.187-.03.335-.061.444-.093v.868a2.02 2.02 0 0 1-.543.146 4.061 4.061 0 0 1-.646.059c-1.449 0-2.174-.764-2.174-2.29v-4.457h-1.073v-.547l1.073-.472.479-1.6h.656v1.736h2.174v.882h-2.174v4.409c0 .451.107.798.321 1.039s.508.364.882.364zM208.055 123.515c0 1.222-.308 2.175-.923 2.86-.615.687-1.465 1.029-2.55 1.029-.67 0-1.265-.157-1.784-.472s-.92-.766-1.203-1.354-.424-1.276-.424-2.064c0-1.222.305-2.173.916-2.854s1.458-1.021 2.543-1.021c1.048 0 1.881.349 2.499 1.046s.926 1.64.926 2.83zm-5.708 0c0 .957.191 1.687.574 2.188s.946.752 1.688.752 1.307-.249 1.692-.749c.385-.498.578-1.229.578-2.19 0-.952-.192-1.676-.578-2.171-.385-.494-.954-.741-1.706-.741-.743 0-1.303.244-1.682.731s-.566 1.214-.566 2.18zM218.808 127.268v-4.847c0-.61-.139-1.066-.417-1.367s-.713-.451-1.306-.451c-.784 0-1.358.212-1.723.636s-.547 1.123-.547 2.099v3.931h-1.135v-7.492h.923l.185 1.025h.055c.232-.369.558-.655.978-.857a3.171 3.171 0 0 1 1.401-.305c.902 0 1.582.218 2.037.652.456.436.684 1.132.684 2.089v4.888h-1.135zM225.439 127.404c-1.107 0-1.981-.337-2.622-1.012s-.96-1.611-.96-2.81c0-1.208.297-2.167.892-2.878s1.394-1.066 2.396-1.066c.939 0 1.682.309 2.229.926.547.618.82 1.433.82 2.444v.718h-5.161c.023.88.245 1.547.667 2.003s1.015.684 1.781.684c.807 0 1.604-.169 2.393-.506v1.012c-.401.173-.78.298-1.138.372-.36.076-.791.113-1.297.113zm-.308-6.815c-.602 0-1.081.196-1.439.588s-.568.935-.632 1.627h3.917c0-.716-.16-1.264-.479-1.644-.318-.381-.774-.571-1.367-.571zM234.736 127.268l-.226-1.066h-.055c-.374.47-.746.787-1.118.953-.372.167-.835.25-1.391.25-.743 0-1.325-.191-1.747-.574s-.632-.928-.632-1.634c0-1.513 1.21-2.306 3.63-2.379l1.271-.041v-.465c0-.588-.126-1.022-.379-1.302-.253-.281-.657-.421-1.213-.421-.625 0-1.331.191-2.119.574l-.349-.868c.369-.2.773-.357 1.213-.472s.881-.171 1.323-.171c.893 0 1.555.198 1.986.595s.646 1.032.646 1.907v5.113h-.84zm-2.564-.8c.707 0 1.261-.193 1.665-.581s.605-.93.605-1.627v-.677l-1.135.048c-.902.032-1.553.172-1.952.42-.399.249-.598.635-.598 1.159 0 .41.124.723.373.937s.596.321 1.042.321zM241.333 119.639c.333 0 .631.027.896.082l-.157 1.053a3.89 3.89 0 0 0-.82-.103c-.606 0-1.125.246-1.555.738s-.646 1.105-.646 1.839v4.02h-1.135v-7.492h.937l.13 1.388h.055c.278-.487.613-.863 1.005-1.128s.82-.397 1.29-.397zM246.794 127.404c-1.107 0-1.981-.337-2.622-1.012s-.96-1.611-.96-2.81c0-1.208.297-2.167.892-2.878s1.394-1.066 2.396-1.066c.939 0 1.682.309 2.229.926.547.618.82 1.433.82 2.444v.718h-5.161c.023.88.245 1.547.667 2.003s1.015.684 1.781.684c.807 0 1.604-.169 2.393-.506v1.012c-.401.173-.78.298-1.138.372a6.361 6.361 0 0 1-1.297.113zm-.307-6.815c-.602 0-1.081.196-1.439.588s-.568.935-.632 1.627h3.917c0-.716-.16-1.264-.479-1.644-.319-.381-.775-.571-1.367-.571zM256.317 125.224c0 .697-.26 1.235-.779 1.613s-1.249.567-2.188.567c-.994 0-1.768-.157-2.324-.472v-1.053c.36.183.746.326 1.159.431s.81.157 1.193.157c.592 0 1.048-.095 1.367-.284.319-.188.479-.477.479-.864 0-.292-.126-.541-.379-.749-.253-.207-.746-.452-1.48-.734-.697-.26-1.193-.486-1.487-.68-.294-.194-.513-.414-.656-.66s-.215-.54-.215-.882c0-.61.249-1.093.745-1.446.497-.353 1.178-.529 2.044-.529a5.98 5.98 0 0 1 2.365.492l-.403.923c-.752-.31-1.433-.465-2.044-.465-.538 0-.943.084-1.217.253s-.41.401-.41.697c0 .2.051.371.154.513s.268.275.496.403.666.312 1.312.554c.889.323 1.489.649 1.801.978s.467.74.467 1.237zM260.583 126.468c.201 0 .394-.015.581-.044.187-.03.335-.061.444-.093v.868a2.02 2.02 0 0 1-.543.146 4.061 4.061 0 0 1-.646.059c-1.449 0-2.174-.764-2.174-2.29v-4.457h-1.073v-.547l1.073-.472.479-1.6h.656v1.736h2.174v.882h-2.174v4.409c0 .451.107.798.321 1.039s.508.364.882.364z"/><path d="M98.618 141.263h-.062c-.524.761-1.308 1.142-2.352 1.142-.98 0-1.742-.335-2.287-1.005s-.817-1.622-.817-2.857.273-2.194.82-2.878 1.308-1.025 2.283-1.025c1.016 0 1.795.369 2.338 1.107h.089l-.048-.54-.027-.526v-3.049h1.135v10.637h-.923l-.149-1.006zm-2.27.191c.775 0 1.336-.211 1.685-.632.349-.422.523-1.103.523-2.041v-.239c0-1.062-.177-1.819-.53-2.272-.353-.454-.917-.681-1.692-.681-.666 0-1.175.259-1.528.776s-.53 1.247-.53 2.19c0 .957.175 1.68.526 2.167s.867.732 1.546.732zM106.705 142.268l-.226-1.066h-.055c-.374.47-.746.787-1.118.953-.372.167-.835.25-1.391.25-.743 0-1.325-.191-1.747-.574s-.632-.928-.632-1.634c0-1.513 1.21-2.306 3.63-2.379l1.271-.041v-.465c0-.588-.126-1.022-.379-1.302-.253-.281-.657-.421-1.213-.421-.625 0-1.331.191-2.119.574l-.349-.868c.369-.2.773-.357 1.213-.472s.881-.171 1.323-.171c.893 0 1.555.198 1.986.595s.646 1.032.646 1.907v5.113h-.84zm-2.564-.8c.707 0 1.261-.193 1.665-.581s.605-.93.605-1.627v-.677l-1.135.048c-.902.032-1.553.172-1.952.42-.399.249-.598.635-.598 1.159 0 .41.124.723.373.937s.595.321 1.042.321zM112.303 141.468c.201 0 .394-.015.581-.044.187-.03.335-.061.444-.093v.868a2.02 2.02 0 0 1-.543.146 4.061 4.061 0 0 1-.646.059c-1.449 0-2.174-.764-2.174-2.29v-4.457h-1.073v-.547l1.073-.472.479-1.6h.656v1.736h2.174v.882H111.1v4.409c0 .451.107.798.321 1.039s.509.364.882.364zM119.433 142.268l-.226-1.066h-.055c-.374.47-.746.787-1.118.953-.372.167-.835.25-1.391.25-.743 0-1.325-.191-1.747-.574s-.632-.928-.632-1.634c0-1.513 1.21-2.306 3.63-2.379l1.271-.041v-.465c0-.588-.126-1.022-.379-1.302-.253-.281-.657-.421-1.213-.421-.625 0-1.331.191-2.119.574l-.349-.868c.369-.2.773-.357 1.213-.472s.881-.171 1.323-.171c.893 0 1.555.198 1.986.595s.646 1.032.646 1.907v5.113h-.84zm-2.563-.8c.707 0 1.261-.193 1.665-.581s.605-.93.605-1.627v-.677l-1.135.048c-.902.032-1.553.172-1.952.42-.399.249-.598.635-.598 1.159 0 .41.124.723.373.937s.595.321 1.042.321zM129.243 142.404c-1.084 0-1.924-.334-2.519-1.002-.595-.667-.892-1.611-.892-2.833 0-1.253.302-2.222.906-2.905s1.464-1.025 2.581-1.025c.36 0 .72.039 1.08.116s.643.169.848.273l-.349.964a5.228 5.228 0 0 0-.82-.25 3.728 3.728 0 0 0-.786-.099c-1.522 0-2.283.971-2.283 2.912 0 .921.186 1.627.557 2.119s.922.738 1.651.738c.625 0 1.265-.135 1.921-.403v1.005c-.503.26-1.134.39-1.895.39zM136.079 142.404c-1.107 0-1.981-.337-2.622-1.012s-.96-1.611-.96-2.81c0-1.208.297-2.167.892-2.878s1.394-1.066 2.396-1.066c.939 0 1.682.309 2.229.926.547.618.82 1.433.82 2.444v.718h-5.161c.023.88.245 1.547.667 2.003s1.015.684 1.781.684c.807 0 1.604-.169 2.393-.506v1.012c-.401.173-.78.298-1.138.372-.36.076-.792.113-1.297.113zm-.308-6.815c-.602 0-1.081.196-1.439.588s-.568.935-.632 1.627h3.917c0-.716-.16-1.264-.479-1.644-.319-.381-.775-.571-1.367-.571zM145.895 142.268v-4.847c0-.61-.139-1.066-.417-1.367s-.713-.451-1.306-.451c-.784 0-1.358.212-1.723.636s-.547 1.123-.547 2.099v3.931h-1.135v-7.492h.923l.185 1.025h.055c.232-.369.558-.655.978-.857a3.171 3.171 0 0 1 1.401-.305c.902 0 1.582.218 2.037.652.456.436.684 1.132.684 2.089v4.888h-1.135zM151.781 141.468c.201 0 .394-.015.581-.044.187-.03.335-.061.444-.093v.868a2.02 2.02 0 0 1-.543.146 4.061 4.061 0 0 1-.646.059c-1.449 0-2.174-.764-2.174-2.29v-4.457h-1.073v-.547l1.073-.472.479-1.6h.656v1.736h2.174v.882h-2.174v4.409c0 .451.107.798.321 1.039s.508.364.882.364zM157.468 142.404c-1.107 0-1.981-.337-2.622-1.012s-.96-1.611-.96-2.81c0-1.208.297-2.167.892-2.878s1.394-1.066 2.396-1.066c.939 0 1.682.309 2.229.926.547.618.82 1.433.82 2.444v.718h-5.161c.023.88.245 1.547.667 2.003s1.015.684 1.781.684c.807 0 1.604-.169 2.393-.506v1.012c-.401.173-.78.298-1.138.372a6.361 6.361 0 0 1-1.297.113zm-.307-6.815c-.602 0-1.081.196-1.439.588s-.568.935-.632 1.627h3.917c0-.716-.16-1.264-.479-1.644-.319-.381-.775-.571-1.367-.571zM165.576 134.639c.333 0 .631.027.896.082l-.157 1.053a3.89 3.89 0 0 0-.82-.103c-.606 0-1.125.246-1.555.738s-.646 1.105-.646 1.839v4.02h-1.135v-7.492h.937l.13 1.388h.055c.278-.487.613-.863 1.005-1.128s.82-.397 1.29-.397zM173.929 141.468c.201 0 .394-.015.581-.044.187-.03.335-.061.444-.093v.868a2.02 2.02 0 0 1-.543.146 4.061 4.061 0 0 1-.646.059c-1.449 0-2.174-.764-2.174-2.29v-4.457h-1.073v-.547l1.073-.472.479-1.6h.656v1.736h2.174v.882h-2.174v4.409c0 .451.107.798.321 1.039s.509.364.882.364zM179.87 134.639c.333 0 .631.027.896.082l-.157 1.053a3.89 3.89 0 0 0-.82-.103c-.606 0-1.125.246-1.555.738s-.646 1.105-.646 1.839v4.02h-1.135v-7.492h.937l.13 1.388h.055c.278-.487.613-.863 1.005-1.128s.82-.397 1.29-.397zM186.774 142.268l-.226-1.066h-.055c-.374.47-.746.787-1.118.953-.372.167-.835.25-1.391.25-.743 0-1.325-.191-1.747-.574s-.632-.928-.632-1.634c0-1.513 1.21-2.306 3.63-2.379l1.271-.041v-.465c0-.588-.126-1.022-.379-1.302-.253-.281-.657-.421-1.213-.421-.625 0-1.331.191-2.119.574l-.349-.868c.369-.2.773-.357 1.213-.472s.881-.171 1.323-.171c.893 0 1.555.198 1.986.595s.646 1.032.646 1.907v5.113h-.84zm-2.564-.8c.707 0 1.261-.193 1.665-.581s.605-.93.605-1.627v-.677l-1.135.048c-.902.032-1.553.172-1.952.42-.399.249-.598.635-.598 1.159 0 .41.124.723.373.937s.596.321 1.042.321zM195.08 142.268v-4.847c0-.61-.139-1.066-.417-1.367s-.713-.451-1.306-.451c-.784 0-1.358.212-1.723.636s-.547 1.123-.547 2.099v3.931h-1.135v-7.492h.923l.185 1.025h.055c.232-.369.558-.655.978-.857a3.171 3.171 0 0 1 1.401-.305c.902 0 1.582.218 2.037.652.456.436.684 1.132.684 2.089v4.888h-1.135zM203.378 140.224c0 .697-.26 1.235-.779 1.613s-1.249.567-2.188.567c-.994 0-1.768-.157-2.324-.472v-1.053c.36.183.746.326 1.159.431s.81.157 1.193.157c.592 0 1.048-.095 1.367-.284.319-.188.479-.477.479-.864 0-.292-.126-.541-.379-.749-.253-.207-.746-.452-1.48-.734-.697-.26-1.193-.486-1.487-.68-.294-.194-.513-.414-.656-.66s-.215-.54-.215-.882c0-.61.249-1.093.745-1.446.497-.353 1.178-.529 2.044-.529a5.98 5.98 0 0 1 2.365.492l-.403.923c-.752-.31-1.433-.465-2.044-.465-.538 0-.943.084-1.217.253s-.41.401-.41.697c0 .2.051.371.154.513s.268.275.496.403.666.312 1.312.554c.889.323 1.489.649 1.801.978s.467.74.467 1.237zM208.71 142.404c-.488 0-.933-.09-1.336-.27a2.519 2.519 0 0 1-1.015-.831h-.082c.055.438.082.853.082 1.244v3.083h-1.135v-10.855h.923l.157 1.025h.055c.292-.41.631-.706 1.019-.889s.832-.273 1.333-.273c.994 0 1.76.34 2.3 1.019s.81 1.632.81 2.857c0 1.23-.274 2.187-.824 2.868-.549.681-1.311 1.022-2.287 1.022zm-.164-6.801c-.766 0-1.319.212-1.661.636s-.517 1.099-.526 2.023v.253c0 1.053.175 1.806.526 2.259.351.454.914.681 1.688.681.647 0 1.154-.262 1.521-.786s.55-1.246.55-2.167c0-.935-.184-1.651-.55-2.149-.366-.501-.882-.75-1.548-.75zM218.411 142.268l-.226-1.066h-.055c-.374.47-.746.787-1.118.953-.372.167-.835.25-1.391.25-.743 0-1.325-.191-1.747-.574s-.632-.928-.632-1.634c0-1.513 1.21-2.306 3.63-2.379l1.271-.041v-.465c0-.588-.126-1.022-.379-1.302-.253-.281-.657-.421-1.213-.421-.625 0-1.331.191-2.119.574l-.349-.868c.369-.2.773-.357 1.213-.472s.881-.171 1.323-.171c.893 0 1.555.198 1.986.595s.646 1.032.646 1.907v5.113h-.84zm-2.564-.8c.707 0 1.261-.193 1.665-.581s.605-.93.605-1.627v-.677l-1.135.048c-.902.032-1.553.172-1.952.42-.399.249-.598.635-.598 1.159 0 .41.124.723.373.937s.595.321 1.042.321zM225.007 134.639c.333 0 .631.027.896.082l-.157 1.053a3.89 3.89 0 0 0-.82-.103c-.606 0-1.125.246-1.555.738s-.646 1.105-.646 1.839v4.02h-1.135v-7.492h.937l.13 1.388h.055c.278-.487.613-.863 1.005-1.128s.821-.397 1.29-.397zM230.469 142.404c-1.107 0-1.981-.337-2.622-1.012s-.96-1.611-.96-2.81c0-1.208.297-2.167.892-2.878s1.394-1.066 2.396-1.066c.939 0 1.682.309 2.229.926.547.618.82 1.433.82 2.444v.718h-5.161c.023.88.245 1.547.667 2.003s1.015.684 1.781.684c.807 0 1.604-.169 2.393-.506v1.012c-.401.173-.78.298-1.138.372a6.361 6.361 0 0 1-1.297.113zm-.307-6.815c-.602 0-1.081.196-1.439.588s-.568.935-.632 1.627h3.917c0-.716-.16-1.264-.479-1.644-.319-.381-.775-.571-1.367-.571zM240.286 142.268v-4.847c0-.61-.139-1.066-.417-1.367s-.713-.451-1.306-.451c-.784 0-1.358.212-1.723.636s-.547 1.123-.547 2.099v3.931h-1.135v-7.492h.923l.185 1.025h.055c.232-.369.558-.655.978-.857a3.171 3.171 0 0 1 1.401-.305c.902 0 1.582.218 2.037.652.456.436.684 1.132.684 2.089v4.888h-1.135zM246.171 141.468c.201 0 .394-.015.581-.044.187-.03.335-.061.444-.093v.868a2.02 2.02 0 0 1-.543.146 4.061 4.061 0 0 1-.646.059c-1.449 0-2.174-.764-2.174-2.29v-4.457h-1.073v-.547l1.073-.472.479-1.6h.656v1.736h2.174v.882h-2.174v4.409c0 .451.107.798.321 1.039s.509.364.882.364zM249.829 142.268h-1.135v-10.637h1.135v10.637zM251.045 134.775h1.217l1.641 4.272c.36.976.583 1.68.67 2.112h.055c.059-.232.184-.63.373-1.193.189-.562.808-2.293 1.856-5.191h1.217l-3.22 8.531c-.319.843-.691 1.441-1.118 1.795-.426.353-.949.529-1.569.529a4.59 4.59 0 0 1-1.025-.116v-.909c.25.055.531.082.841.082.779 0 1.335-.438 1.668-1.312l.417-1.066-3.023-7.534z"/></g><path fill="none" stroke="#f89521" stroke-miterlimit="10" stroke-width="3" d="m487.1 81.7h302.1"/><path fill="#f89521" d="M783 81.4l-.1-9.2 8 4.5 8.1 4.6-8 4.7-7.9 4.6zM494 81.3l.1 9.2-8-4.5-8.1-4.6 8-4.7 7.9-4.6z"/><g fill="#7c7d7d"><path d="M562.223 120.186c0 1.012-.345 1.79-1.035 2.334-.69.545-1.678.817-2.963.817h-1.176v3.931h-1.162v-9.994h2.59c2.498-.001 3.746.97 3.746 2.912zm-5.174 2.153h1.045c1.03 0 1.775-.166 2.236-.499.46-.333.689-.866.689-1.6 0-.661-.216-1.153-.648-1.477-.434-.323-1.107-.485-2.023-.485h-1.299v4.061zM567.309 127.404c-1.107 0-1.98-.337-2.621-1.012s-.961-1.611-.961-2.81c0-1.208.298-2.167.893-2.878s1.394-1.066 2.396-1.066c.938 0 1.682.309 2.229.926.547.618.82 1.433.82 2.444v.718h-5.162c.023.88.246 1.547.667 2.003s1.015.684 1.78.684c.807 0 1.604-.169 2.393-.506v1.012c-.4.173-.779.298-1.138.372a6.358 6.358 0 0 1-1.296.113zm-.307-6.815c-.602 0-1.082.196-1.439.588s-.568.935-.633 1.627h3.918c0-.716-.16-1.264-.479-1.644-.319-.381-.775-.571-1.367-.571zM575.416 119.639c.333 0 .632.027.896.082l-.158 1.053a3.89 3.89 0 0 0-.82-.103c-.605 0-1.124.246-1.555.738s-.646 1.105-.646 1.839v4.02h-1.135v-7.492h.938l.129 1.388h.055c.278-.487.613-.863 1.006-1.128a2.25 2.25 0 0 1 1.29-.397zM587.264 127.268v-4.874c0-.597-.128-1.045-.383-1.343-.256-.299-.652-.448-1.189-.448-.707 0-1.229.203-1.566.608-.337.405-.506 1.03-.506 1.873v4.184h-1.135v-4.874c0-.597-.127-1.045-.383-1.343-.255-.299-.653-.448-1.195-.448-.711 0-1.232.213-1.562.64-.33.426-.496 1.124-.496 2.095v3.931h-1.135v-7.492h.924l.184 1.025h.055c.215-.364.517-.649.906-.854s.826-.308 1.309-.308c1.172 0 1.938.424 2.297 1.271h.055c.224-.392.547-.702.971-.93s.907-.342 1.449-.342c.848 0 1.482.218 1.904.652.422.436.633 1.132.633 2.089v4.888h-1.137zM595.344 127.268l-.227-1.066h-.055c-.373.47-.746.787-1.117.953-.371.167-.835.25-1.391.25-.743 0-1.326-.191-1.747-.574s-.632-.928-.632-1.634c0-1.513 1.209-2.306 3.629-2.379l1.271-.041v-.465c0-.588-.126-1.022-.379-1.302-.253-.281-.657-.421-1.213-.421-.625 0-1.331.191-2.119.574l-.35-.868c.369-.2.773-.357 1.214-.472s.881-.171 1.323-.171c.893 0 1.555.198 1.985.595s.646 1.032.646 1.907v5.113h-.838zm-2.565-.8c.707 0 1.262-.193 1.665-.581s.604-.93.604-1.627v-.677l-1.135.048c-.902.032-1.553.172-1.951.42-.398.249-.598.635-.598 1.159 0 .41.123.723.372.937s.597.321 1.043.321zM603.648 127.268v-4.847c0-.61-.139-1.066-.416-1.367-.278-.301-.714-.451-1.307-.451-.783 0-1.357.212-1.723.636-.364.424-.547 1.123-.547 2.099v3.931h-1.135v-7.492h.924l.184 1.025h.055c.232-.369.559-.655.979-.857a3.17 3.17 0 0 1 1.4-.305c.902 0 1.582.218 2.037.652.456.436.684 1.132.684 2.089v4.888h-1.135zM610.279 127.404c-1.107 0-1.98-.337-2.621-1.012s-.961-1.611-.961-2.81c0-1.208.298-2.167.893-2.878s1.394-1.066 2.396-1.066c.938 0 1.682.309 2.229.926.547.618.82 1.433.82 2.444v.718h-5.162c.023.88.246 1.547.667 2.003s1.015.684 1.78.684c.807 0 1.604-.169 2.393-.506v1.012c-.4.173-.779.298-1.138.372-.358.076-.79.113-1.296.113zm-.306-6.815c-.602 0-1.082.196-1.439.588s-.568.935-.633 1.627h3.918c0-.716-.16-1.264-.479-1.644-.319-.381-.776-.571-1.367-.571zM620.096 127.268v-4.847c0-.61-.139-1.066-.416-1.367-.278-.301-.714-.451-1.307-.451-.783 0-1.357.212-1.723.636-.364.424-.547 1.123-.547 2.099v3.931h-1.135v-7.492h.924l.184 1.025h.055c.232-.369.559-.655.979-.857a3.17 3.17 0 0 1 1.4-.305c.902 0 1.582.218 2.037.652.456.436.684 1.132.684 2.089v4.888h-1.135zM625.982 126.468c.2 0 .394-.015.58-.044.188-.03.336-.061.445-.093v.868a2.03 2.03 0 0 1-.544.146 4.051 4.051 0 0 1-.646.059c-1.449 0-2.174-.764-2.174-2.29v-4.457h-1.074v-.547l1.074-.472.479-1.6h.656v1.736h2.174v.882h-2.174v4.409c0 .451.106.798.32 1.039.216.243.51.364.884.364zM635.518 120.657h-1.906v6.61h-1.135v-6.61h-1.34v-.513l1.34-.41v-.417c0-1.841.804-2.762 2.412-2.762.396 0 .861.08 1.395.239l-.293.909c-.438-.142-.812-.212-1.121-.212-.429 0-.746.143-.951.428-.205.284-.307.741-.307 1.37v.485h1.906v.883zM641.492 127.268l-.225-1.066h-.055c-.374.47-.746.787-1.118.953-.372.167-.835.25-1.392.25-.742 0-1.324-.191-1.746-.574s-.633-.928-.633-1.634c0-1.513 1.211-2.306 3.631-2.379l1.271-.041v-.465c0-.588-.127-1.022-.38-1.302-.253-.281-.657-.421-1.214-.421-.624 0-1.33.191-2.119.574l-.348-.868c.369-.2.773-.357 1.213-.472s.881-.171 1.322-.171c.894 0 1.556.198 1.986.595s.646 1.032.646 1.907v5.113h-.839zm-2.562-.8c.706 0 1.261-.193 1.664-.581s.605-.93.605-1.627v-.677l-1.135.048c-.902.032-1.553.172-1.952.42-.399.249-.599.635-.599 1.159 0 .41.125.723.373.937s.596.321 1.044.321zM649.504 125.224c0 .697-.26 1.235-.779 1.613s-1.248.567-2.188.567c-.993 0-1.768-.157-2.324-.472v-1.053c.36.183.746.326 1.159.431s.81.157 1.192.157c.593 0 1.049-.095 1.367-.284.319-.188.479-.477.479-.864 0-.292-.126-.541-.379-.749-.253-.207-.746-.452-1.48-.734-.697-.26-1.192-.486-1.486-.68-.294-.194-.513-.414-.656-.66s-.215-.54-.215-.882c0-.61.248-1.093.744-1.446.497-.353 1.179-.529 2.045-.529a5.98 5.98 0 0 1 2.365.492l-.404.923c-.752-.31-1.433-.465-2.043-.465-.538 0-.943.084-1.217.253s-.41.401-.41.697c0 .2.051.371.153.513s.268.275.495.403c.229.128.666.312 1.312.554.889.323 1.49.649 1.802.978s.468.74.468 1.237zM653.77 126.468c.201 0 .395-.015.582-.044.187-.03.334-.061.443-.093v.868a2.02 2.02 0 0 1-.543.146 4.061 4.061 0 0 1-.646.059c-1.449 0-2.174-.764-2.174-2.29v-4.457h-1.072v-.547l1.072-.472.479-1.6h.656v1.736h2.174v.882h-2.174v4.409c0 .451.107.798.322 1.039.214.243.507.364.881.364zM662.924 127.404c-1.085 0-1.925-.334-2.52-1.002-.595-.667-.893-1.611-.893-2.833 0-1.253.303-2.222.906-2.905s1.464-1.025 2.58-1.025c.36 0 .721.039 1.08.116.36.077.643.169.848.273l-.348.964a5.261 5.261 0 0 0-.82-.25 3.744 3.744 0 0 0-.787-.099c-1.521 0-2.283.971-2.283 2.912 0 .921.186 1.627.558 2.119s.922.738 1.651.738c.624 0 1.264-.135 1.92-.403v1.005c-.501.26-1.131.39-1.892.39zM673.061 123.515c0 1.222-.307 2.175-.922 2.86-.615.687-1.466 1.029-2.551 1.029-.67 0-1.264-.157-1.783-.472s-.921-.766-1.203-1.354c-.283-.588-.424-1.276-.424-2.064 0-1.222.305-2.173.916-2.854.61-.681 1.458-1.021 2.543-1.021 1.048 0 1.881.349 2.498 1.046s.926 1.64.926 2.83zm-5.707 0c0 .957.191 1.687.574 2.188s.945.752 1.688.752 1.307-.249 1.692-.749c.386-.498.577-1.229.577-2.19 0-.952-.191-1.676-.577-2.171-.386-.494-.954-.741-1.706-.741-.742 0-1.303.244-1.682.731-.378.486-.566 1.214-.566 2.18zM680.178 127.268v-4.847c0-.61-.14-1.066-.418-1.367-.277-.301-.713-.451-1.305-.451-.784 0-1.358.212-1.723.636-.365.424-.547 1.123-.547 2.099v3.931h-1.135v-7.492h.922l.186 1.025h.055c.232-.369.558-.655.977-.857.42-.203.887-.305 1.402-.305.902 0 1.581.218 2.037.652.455.436.684 1.132.684 2.089v4.888h-1.135zM688.77 127.268v-4.847c0-.61-.139-1.066-.416-1.367-.278-.301-.714-.451-1.307-.451-.783 0-1.357.212-1.723.636-.364.424-.547 1.123-.547 2.099v3.931h-1.135v-7.492h.924l.184 1.025h.055c.232-.369.559-.655.979-.857a3.17 3.17 0 0 1 1.4-.305c.902 0 1.582.218 2.037.652.456.436.684 1.132.684 2.089v4.888h-1.135zM695.4 127.404c-1.107 0-1.98-.337-2.621-1.012s-.961-1.611-.961-2.81c0-1.208.298-2.167.893-2.878s1.394-1.066 2.396-1.066c.938 0 1.682.309 2.229.926.547.618.82 1.433.82 2.444v.718h-5.162c.023.88.246 1.547.667 2.003s1.015.684 1.78.684c.807 0 1.604-.169 2.393-.506v1.012c-.4.173-.779.298-1.138.372-.358.076-.79.113-1.296.113zm-.306-6.815c-.602 0-1.082.196-1.439.588s-.568.935-.633 1.627h3.918c0-.716-.16-1.264-.479-1.644-.319-.381-.775-.571-1.367-.571zM703.084 127.404c-1.084 0-1.924-.334-2.519-1.002-.595-.667-.892-1.611-.892-2.833 0-1.253.301-2.222.905-2.905s1.464-1.025 2.581-1.025c.359 0 .72.039 1.08.116.359.077.643.169.848.273l-.35.964a5.196 5.196 0 0 0-.82-.25 3.727 3.727 0 0 0-.785-.099c-1.522 0-2.283.971-2.283 2.912 0 .921.186 1.627.557 2.119s.922.738 1.65.738c.625 0 1.266-.135 1.922-.403v1.005c-.501.26-1.132.39-1.894.39zM709.176 126.468c.2 0 .394-.015.58-.044.188-.03.336-.061.445-.093v.868a2.03 2.03 0 0 1-.544.146 4.051 4.051 0 0 1-.646.059c-1.449 0-2.174-.764-2.174-2.29v-4.457h-1.074v-.547l1.074-.472.479-1.6h.656v1.736h2.174v.882h-2.174v4.409c0 .451.106.798.32 1.039.216.243.51.364.884.364zM711.602 117.745c0-.26.064-.45.191-.571a.673.673 0 0 1 .479-.181c.183 0 .34.062.473.185.132.123.197.312.197.567s-.065.445-.197.571a.667.667 0 0 1-.473.188.655.655 0 0 1-.479-.188c-.127-.126-.191-.316-.191-.571zm1.23 9.523h-1.135v-7.492h1.135v7.492zM721.705 123.515c0 1.222-.307 2.175-.922 2.86-.615.687-1.466 1.029-2.551 1.029-.67 0-1.264-.157-1.783-.472s-.921-.766-1.203-1.354c-.283-.588-.424-1.276-.424-2.064 0-1.222.305-2.173.916-2.854.61-.681 1.458-1.021 2.543-1.021 1.048 0 1.881.349 2.498 1.046s.926 1.64.926 2.83zm-5.707 0c0 .957.191 1.687.574 2.188s.945.752 1.688.752 1.307-.249 1.692-.749c.386-.498.577-1.229.577-2.19 0-.952-.191-1.676-.577-2.171-.386-.494-.954-.741-1.706-.741-.742 0-1.303.244-1.682.731-.377.486-.566 1.214-.566 2.18zM728.822 127.268v-4.847c0-.61-.14-1.066-.418-1.367-.277-.301-.713-.451-1.305-.451-.784 0-1.358.212-1.723.636-.365.424-.547 1.123-.547 2.099v3.931h-1.135v-7.492h.922l.186 1.025h.055c.232-.369.558-.655.977-.857.42-.203.887-.305 1.402-.305.902 0 1.581.218 2.037.652.455.436.684 1.132.684 2.089v4.888h-1.135zM732.123 126.543c0-.306.07-.537.209-.693.139-.158.338-.236.598-.236.265 0 .471.078.619.236.148.156.223.388.223.693 0 .296-.076.524-.227.684s-.355.239-.615.239a.804.804 0 0 1-.577-.216c-.154-.143-.23-.379-.23-.707z"/><path d="M519.261 137.257c0 1.6-.404 2.857-1.213 3.773-.81.916-1.934 1.374-3.374 1.374-1.472 0-2.607-.45-3.407-1.35-.8-.9-1.2-2.171-1.2-3.812 0-1.627.401-2.888 1.203-3.784.803-.895 1.941-1.343 3.418-1.343 1.436 0 2.557.456 3.363 1.367s1.21 2.17 1.21 3.775zm-7.964 0c0 1.354.288 2.38.865 3.079.576.7 1.414 1.05 2.512 1.05 1.107 0 1.944-.349 2.509-1.046.565-.697.848-1.725.848-3.083 0-1.345-.281-2.364-.844-3.06-.563-.694-1.396-1.042-2.499-1.042-1.107 0-1.949.35-2.525 1.05-.578.699-.866 1.717-.866 3.052zM526.445 142.268v-4.847c0-.61-.139-1.066-.417-1.367-.277-.301-.713-.451-1.306-.451-.783 0-1.357.212-1.723.636-.364.424-.547 1.123-.547 2.099v3.931h-1.135v-7.492h.923l.185 1.025h.055c.232-.369.559-.655.978-.857.42-.203.887-.305 1.401-.305.902 0 1.582.218 2.037.652.456.436.684 1.132.684 2.089v4.888h-1.135zM531.046 142.268h-1.135v-10.637h1.135v10.637zM532.263 134.775h1.217l1.641 4.272c.36.976.584 1.68.67 2.112h.055c.06-.232.184-.63.373-1.193.188-.562.808-2.293 1.855-5.191h1.217l-3.22 8.531c-.318.843-.691 1.441-1.117 1.795-.427.353-.949.529-1.569.529a4.59 4.59 0 0 1-1.025-.116v-.909c.251.055.531.082.841.082.779 0 1.336-.438 1.668-1.312l.417-1.066-3.023-7.534zM548.977 140.224c0 .697-.26 1.235-.779 1.613s-1.248.567-2.188.567c-.993 0-1.768-.157-2.324-.472v-1.053c.36.183.746.326 1.159.431.412.104.81.157 1.192.157.593 0 1.049-.095 1.367-.284.319-.188.479-.477.479-.864 0-.292-.126-.541-.379-.749-.253-.207-.746-.452-1.48-.734-.697-.26-1.192-.486-1.486-.68-.294-.194-.513-.414-.656-.66s-.216-.54-.216-.882c0-.61.249-1.093.745-1.446.497-.353 1.179-.529 2.044-.529.807 0 1.596.164 2.365.492l-.403.923c-.752-.31-1.433-.465-2.044-.465-.537 0-.943.084-1.217.253s-.41.401-.41.697c0 .2.052.371.154.513s.268.275.495.403c.229.128.666.312 1.312.554.889.323 1.489.649 1.802.978.311.327.468.74.468 1.237zM553.987 142.404c-1.107 0-1.981-.337-2.621-1.012-.641-.675-.961-1.611-.961-2.81 0-1.208.298-2.167.893-2.878s1.394-1.066 2.396-1.066c.939 0 1.682.309 2.229.926.547.618.82 1.433.82 2.444v.718h-5.161c.023.88.245 1.547.667 2.003.421.456 1.015.684 1.78.684.807 0 1.604-.169 2.393-.506v1.012c-.4.173-.78.298-1.138.372a6.361 6.361 0 0 1-1.297.113zm-.307-6.815c-.602 0-1.081.196-1.438.588-.358.392-.568.935-.633 1.627h3.917c0-.716-.159-1.264-.479-1.644-.318-.381-.775-.571-1.367-.571zM562.095 134.639c.333 0 .632.027.896.082l-.157 1.053a3.89 3.89 0 0 0-.82-.103c-.605 0-1.124.246-1.555.738s-.646 1.105-.646 1.839v4.02h-1.135v-7.492h.937l.13 1.388h.055c.278-.487.613-.863 1.005-1.128.39-.265.821-.397 1.29-.397zM566.032 142.268l-2.844-7.492h1.217l1.613 4.443c.365 1.039.579 1.714.643 2.023h.055c.051-.241.209-.742.476-1.5.267-.76.864-2.415 1.794-4.967h1.217l-2.844 7.492h-1.327zM574.57 142.404c-1.107 0-1.981-.337-2.621-1.012-.641-.675-.961-1.611-.961-2.81 0-1.208.298-2.167.893-2.878s1.394-1.066 2.396-1.066c.939 0 1.682.309 2.229.926.547.618.82 1.433.82 2.444v.718h-5.161c.023.88.245 1.547.667 2.003.421.456 1.015.684 1.78.684.807 0 1.604-.169 2.393-.506v1.012c-.4.173-.78.298-1.138.372a6.361 6.361 0 0 1-1.297.113zm-.307-6.815c-.602 0-1.081.196-1.438.588-.358.392-.568.935-.633 1.627h3.917c0-.716-.159-1.264-.479-1.644-.318-.381-.775-.571-1.367-.571zM584.093 140.224c0 .697-.26 1.235-.779 1.613s-1.248.567-2.188.567c-.993 0-1.768-.157-2.324-.472v-1.053c.36.183.746.326 1.159.431.412.104.81.157 1.192.157.593 0 1.049-.095 1.367-.284.319-.188.479-.477.479-.864 0-.292-.126-.541-.379-.749-.253-.207-.746-.452-1.48-.734-.697-.26-1.192-.486-1.486-.68-.294-.194-.513-.414-.656-.66s-.216-.54-.216-.882c0-.61.249-1.093.745-1.446.497-.353 1.179-.529 2.044-.529.807 0 1.596.164 2.365.492l-.403.923c-.752-.31-1.433-.465-2.044-.465-.537 0-.943.084-1.217.253s-.41.401-.41.697c0 .2.052.371.154.513s.268.275.495.403c.229.128.666.312 1.312.554.889.323 1.489.649 1.802.978.312.327.468.74.468 1.237zM592.569 142.404c-1.084 0-1.924-.334-2.519-1.002-.595-.667-.893-1.611-.893-2.833 0-1.253.302-2.222.906-2.905.604-.684 1.464-1.025 2.58-1.025.36 0 .721.039 1.08.116.36.077.643.169.848.273l-.349.964a5.196 5.196 0 0 0-.82-.25 3.728 3.728 0 0 0-.786-.099c-1.521 0-2.283.971-2.283 2.912 0 .921.186 1.627.558 2.119.371.492.922.738 1.65.738.625 0 1.265-.135 1.921-.403v1.005c-.5.26-1.131.39-1.893.39zM601.367 142.268v-4.847c0-.61-.139-1.066-.417-1.367-.277-.301-.713-.451-1.306-.451-.788 0-1.363.214-1.726.643s-.544 1.13-.544 2.105v3.917h-1.135v-10.637h1.135v3.22c0 .388-.018.709-.055.964h.068c.224-.36.541-.644.954-.852a3.103 3.103 0 0 1 1.411-.311c.916 0 1.604.218 2.062.652.458.436.687 1.127.687 2.075v4.888h-1.134zM609.44 142.268l-.226-1.066h-.055c-.373.47-.746.787-1.117.953-.372.167-.835.25-1.392.25-.742 0-1.325-.191-1.746-.574-.422-.383-.633-.928-.633-1.634 0-1.513 1.21-2.306 3.63-2.379l1.271-.041v-.465c0-.588-.126-1.022-.379-1.302-.253-.281-.657-.421-1.214-.421-.624 0-1.33.191-2.119.574l-.349-.868c.369-.2.773-.357 1.214-.472a5.248 5.248 0 0 1 1.322-.171c.894 0 1.556.198 1.986.595s.646 1.032.646 1.907v5.113h-.839zm-2.563-.8c.707 0 1.262-.193 1.665-.581s.604-.93.604-1.627v-.677l-1.135.048c-.902.032-1.553.172-1.951.42-.399.249-.599.635-.599 1.159 0 .41.124.723.373.937.249.213.597.321 1.043.321zM617.746 142.268v-4.847c0-.61-.139-1.066-.417-1.367-.277-.301-.713-.451-1.306-.451-.783 0-1.357.212-1.723.636-.364.424-.547 1.123-.547 2.099v3.931h-1.135v-7.492h.923l.185 1.025h.055c.232-.369.559-.655.978-.857.42-.203.887-.305 1.401-.305.902 0 1.582.218 2.037.652.456.436.684 1.132.684 2.089v4.888h-1.135zM627.344 134.775v.718l-1.388.164c.128.159.242.368.342.626.101.257.15.548.15.871 0 .733-.25 1.319-.752 1.757-.501.438-1.189.656-2.064.656-.223 0-.433-.019-.629-.055-.482.255-.725.576-.725.964 0 .205.085.356.253.455.169.098.458.146.868.146h1.326c.812 0 1.435.171 1.87.513.435.342.652.839.652 1.49 0 .829-.332 1.462-.998 1.897-.665.435-1.636.652-2.912.652-.979 0-1.735-.183-2.266-.547-.531-.364-.797-.88-.797-1.545 0-.456.146-.85.438-1.183.292-.333.702-.559 1.23-.677-.191-.087-.352-.221-.481-.403s-.195-.395-.195-.636c0-.273.073-.513.219-.718.146-.205.376-.403.69-.595a2.02 2.02 0 0 1-.946-.813 2.388 2.388 0 0 1-.366-1.312c0-.82.246-1.452.738-1.897.492-.443 1.189-.666 2.092-.666.393 0 .745.046 1.06.137h2.591zm-5.975 8.75c0 .405.171.713.513.923s.832.314 1.47.314c.953 0 1.658-.143 2.116-.427.458-.285.687-.672.687-1.159 0-.405-.125-.687-.376-.845-.25-.156-.722-.235-1.415-.235h-1.36c-.515 0-.916.123-1.203.369s-.432.6-.432 1.06zm.615-6.35c0 .524.148.921.444 1.189.297.269.709.403 1.237.403 1.107 0 1.661-.538 1.661-1.613 0-1.126-.561-1.688-1.682-1.688-.533 0-.943.144-1.23.431s-.43.712-.43 1.278zM632.047 142.404c-1.107 0-1.981-.337-2.621-1.012-.641-.675-.961-1.611-.961-2.81 0-1.208.298-2.167.893-2.878s1.394-1.066 2.396-1.066c.939 0 1.682.309 2.229.926.547.618.82 1.433.82 2.444v.718h-5.161c.023.88.245 1.547.667 2.003.421.456 1.015.684 1.78.684.807 0 1.604-.169 2.393-.506v1.012c-.4.173-.78.298-1.138.372-.36.076-.791.113-1.297.113zm-.308-6.815c-.602 0-1.081.196-1.438.588-.358.392-.568.935-.633 1.627h3.917c0-.716-.159-1.264-.479-1.644-.318-.381-.774-.571-1.367-.571zM641.569 140.224c0 .697-.26 1.235-.779 1.613s-1.248.567-2.188.567c-.993 0-1.768-.157-2.324-.472v-1.053c.36.183.746.326 1.159.431.412.104.81.157 1.192.157.593 0 1.049-.095 1.367-.284.319-.188.479-.477.479-.864 0-.292-.126-.541-.379-.749-.253-.207-.746-.452-1.48-.734-.697-.26-1.192-.486-1.486-.68-.294-.194-.513-.414-.656-.66s-.216-.54-.216-.882c0-.61.249-1.093.745-1.446.497-.353 1.179-.529 2.044-.529.807 0 1.596.164 2.365.492l-.403.923c-.752-.31-1.433-.465-2.044-.465-.537 0-.943.084-1.217.253s-.41.401-.41.697c0 .2.052.371.154.513s.268.275.495.403c.229.128.666.312 1.312.554.889.323 1.489.649 1.802.978.312.327.468.74.468 1.237zM643.251 141.543c0-.306.069-.537.209-.693.139-.158.338-.236.598-.236.265 0 .471.078.619.236.147.156.222.388.222.693 0 .296-.075.524-.226.684s-.355.239-.615.239a.802.802 0 0 1-.577-.216c-.154-.143-.23-.379-.23-.707zM658.536 142.268h-1.162v-4.703h-5.264v4.703h-1.162v-9.994h1.162v4.252h5.264v-4.252h1.162v9.994zM661.011 132.745c0-.26.064-.45.191-.571a.673.673 0 0 1 .479-.181c.183 0 .34.062.472.185.133.123.198.312.198.567s-.065.445-.198.571a.663.663 0 0 1-.472.188.655.655 0 0 1-.479-.188c-.127-.126-.191-.316-.191-.571zm1.23 9.523h-1.135v-7.492h1.135v7.492zM670.779 134.775v.718l-1.388.164c.128.159.242.368.342.626.101.257.15.548.15.871 0 .733-.25 1.319-.752 1.757-.501.438-1.189.656-2.064.656-.223 0-.433-.019-.629-.055-.482.255-.725.576-.725.964 0 .205.085.356.253.455.169.098.458.146.868.146h1.326c.812 0 1.435.171 1.87.513.435.342.652.839.652 1.49 0 .829-.332 1.462-.998 1.897-.665.435-1.636.652-2.912.652-.979 0-1.735-.183-2.266-.547-.531-.364-.797-.88-.797-1.545 0-.456.146-.85.438-1.183.292-.333.702-.559 1.23-.677-.191-.087-.352-.221-.481-.403s-.195-.395-.195-.636c0-.273.073-.513.219-.718.146-.205.376-.403.69-.595a2.02 2.02 0 0 1-.946-.813 2.388 2.388 0 0 1-.366-1.312c0-.82.246-1.452.738-1.897.492-.443 1.189-.666 2.092-.666.393 0 .745.046 1.06.137h2.591zm-5.974 8.75c0 .405.171.713.513.923s.832.314 1.47.314c.953 0 1.658-.143 2.116-.427.458-.285.687-.672.687-1.159 0-.405-.125-.687-.376-.845-.25-.156-.722-.235-1.415-.235h-1.36c-.515 0-.916.123-1.203.369s-.432.6-.432 1.06zm.615-6.35c0 .524.148.921.444 1.189.297.269.709.403 1.237.403 1.107 0 1.661-.538 1.661-1.613 0-1.126-.561-1.688-1.682-1.688-.533 0-.943.144-1.23.431s-.43.712-.43 1.278zM677.444 142.268v-4.847c0-.61-.139-1.066-.417-1.367-.277-.301-.713-.451-1.306-.451-.788 0-1.363.214-1.726.643s-.544 1.13-.544 2.105v3.917h-1.135v-10.637h1.135v3.22c0 .388-.018.709-.055.964h.068c.224-.36.541-.644.954-.852a3.103 3.103 0 0 1 1.411-.311c.916 0 1.604.218 2.062.652.458.436.687 1.127.687 2.075v4.888h-1.134zM682.045 142.268h-1.135v-10.637h1.135v10.637zM683.262 134.775h1.217l1.641 4.272c.36.976.584 1.68.67 2.112h.055c.06-.232.184-.63.373-1.193.188-.562.808-2.293 1.855-5.191h1.217l-3.22 8.531c-.318.843-.691 1.441-1.117 1.795-.427.353-.949.529-1.569.529a4.59 4.59 0 0 1-1.025-.116v-.909c.251.055.531.082.841.082.779 0 1.336-.438 1.668-1.312l.417-1.066-3.023-7.534zM698.137 142.404c-1.084 0-1.924-.334-2.519-1.002-.595-.667-.893-1.611-.893-2.833 0-1.253.302-2.222.906-2.905.604-.684 1.464-1.025 2.58-1.025.36 0 .721.039 1.08.116.36.077.643.169.848.273l-.349.964a5.196 5.196 0 0 0-.82-.25 3.728 3.728 0 0 0-.786-.099c-1.521 0-2.283.971-2.283 2.912 0 .921.186 1.627.558 2.119.371.492.922.738 1.65.738.625 0 1.265-.135 1.921-.403v1.005c-.501.26-1.132.39-1.893.39zM708.274 138.515c0 1.222-.308 2.175-.923 2.86-.615.687-1.465 1.029-2.55 1.029-.67 0-1.265-.157-1.784-.472s-.92-.766-1.203-1.354c-.282-.588-.424-1.276-.424-2.064 0-1.222.306-2.173.916-2.854.611-.681 1.459-1.021 2.543-1.021 1.049 0 1.881.349 2.499 1.046.618.697.926 1.64.926 2.83zm-5.708 0c0 .957.191 1.687.574 2.188s.946.752 1.688.752c.743 0 1.307-.249 1.692-.749.385-.498.577-1.229.577-2.19 0-.952-.192-1.676-.577-2.171-.386-.494-.954-.741-1.706-.741-.742 0-1.303.244-1.682.731-.376.486-.566 1.214-.566 2.18zM719.813 142.268v-4.874c0-.597-.127-1.045-.383-1.343-.255-.299-.651-.448-1.189-.448-.706 0-1.228.203-1.565.608-.337.405-.506 1.03-.506 1.873v4.184h-1.135v-4.874c0-.597-.127-1.045-.383-1.343-.255-.299-.653-.448-1.196-.448-.711 0-1.231.213-1.562.64-.331.426-.496 1.124-.496 2.095v3.931h-1.135v-7.492h.923l.185 1.025h.055c.215-.364.517-.649.906-.854s.826-.308 1.309-.308c1.172 0 1.938.424 2.297 1.271h.055c.224-.392.547-.702.971-.93s.907-.342 1.449-.342c.848 0 1.482.218 1.904.652.421.436.632 1.132.632 2.089v4.888h-1.136zM726.772 142.404c-.487 0-.933-.09-1.336-.27a2.528 2.528 0 0 1-1.016-.831h-.082c.055.438.082.853.082 1.244v3.083h-1.135v-10.855h.923l.157 1.025h.055c.292-.41.632-.706 1.019-.889.388-.183.832-.273 1.333-.273.994 0 1.761.34 2.301 1.019s.81 1.632.81 2.857c0 1.23-.274 2.187-.823 2.868-.55.681-1.312 1.022-2.288 1.022zm-.164-6.801c-.766 0-1.319.212-1.661.636s-.517 1.099-.526 2.023v.253c0 1.053.176 1.806.526 2.259.352.454.914.681 1.688.681.647 0 1.154-.262 1.521-.786.366-.524.55-1.246.55-2.167 0-.935-.184-1.651-.55-2.149-.366-.501-.882-.75-1.548-.75zM735.283 134.639c.333 0 .632.027.896.082l-.157 1.053a3.89 3.89 0 0 0-.82-.103c-.605 0-1.124.246-1.555.738s-.647 1.106-.647 1.839v4.02h-1.135v-7.492h.937l.13 1.388h.055c.278-.487.613-.863 1.005-1.128a2.256 2.256 0 0 1 1.291-.397zM740.745 142.404c-1.107 0-1.981-.337-2.621-1.012-.641-.675-.961-1.611-.961-2.81 0-1.208.298-2.167.893-2.878s1.394-1.066 2.396-1.066c.939 0 1.682.309 2.229.926.547.618.82 1.433.82 2.444v.718h-5.161c.023.88.245 1.547.667 2.003.421.456 1.015.684 1.78.684.807 0 1.604-.169 2.393-.506v1.012c-.4.173-.78.298-1.138.372a6.361 6.361 0 0 1-1.297.113zm-.307-6.815c-.602 0-1.081.196-1.438.588-.358.392-.568.935-.633 1.627h3.917c0-.716-.159-1.264-.479-1.644-.319-.381-.775-.571-1.367-.571zM750.268 140.224c0 .697-.26 1.235-.779 1.613s-1.248.567-2.188.567c-.993 0-1.768-.157-2.324-.472v-1.053c.36.183.746.326 1.159.431.412.104.81.157 1.192.157.593 0 1.049-.095 1.367-.284.319-.188.479-.477.479-.864 0-.292-.126-.541-.379-.749-.253-.207-.746-.452-1.48-.734-.697-.26-1.192-.486-1.486-.68-.294-.194-.513-.414-.656-.66s-.216-.54-.216-.882c0-.61.249-1.093.745-1.446.497-.353 1.179-.529 2.044-.529.807 0 1.596.164 2.365.492l-.403.923c-.752-.31-1.433-.465-2.044-.465-.537 0-.943.084-1.217.253s-.41.401-.41.697c0 .2.052.371.154.513s.268.275.495.403c.229.128.666.312 1.312.554.889.323 1.489.649 1.802.978.311.327.468.74.468 1.237zM756.946 140.224c0 .697-.26 1.235-.779 1.613s-1.248.567-2.188.567c-.993 0-1.768-.157-2.324-.472v-1.053c.36.183.746.326 1.159.431.412.104.81.157 1.192.157.593 0 1.049-.095 1.367-.284.319-.188.479-.477.479-.864 0-.292-.126-.541-.379-.749-.253-.207-.746-.452-1.48-.734-.697-.26-1.192-.486-1.486-.68-.294-.194-.513-.414-.656-.66s-.216-.54-.216-.882c0-.61.249-1.093.745-1.446.497-.353 1.179-.529 2.044-.529.807 0 1.596.164 2.365.492l-.403.923c-.752-.31-1.433-.465-2.044-.465-.537 0-.943.084-1.217.253s-.41.401-.41.697c0 .2.052.371.154.513s.268.275.495.403c.229.128.666.312 1.312.554.889.323 1.489.649 1.802.978.312.327.468.74.468 1.237zM761.957 142.404c-1.107 0-1.981-.337-2.621-1.012-.641-.675-.961-1.611-.961-2.81 0-1.208.298-2.167.893-2.878s1.394-1.066 2.396-1.066c.939 0 1.682.309 2.229.926.547.618.82 1.433.82 2.444v.718h-5.161c.023.88.245 1.547.667 2.003.421.456 1.015.684 1.78.684.807 0 1.604-.169 2.393-.506v1.012c-.4.173-.78.298-1.138.372a6.361 6.361 0 0 1-1.297.113zm-.308-6.815c-.602 0-1.081.196-1.438.588-.358.392-.568.935-.633 1.627h3.917c0-.716-.159-1.264-.479-1.644-.318-.381-.774-.571-1.367-.571zM771.746 141.263h-.062c-.523.761-1.308 1.142-2.352 1.142-.979 0-1.742-.335-2.286-1.005-.545-.67-.817-1.622-.817-2.857s.273-2.194.82-2.878 1.309-1.025 2.283-1.025c1.017 0 1.796.369 2.338 1.107h.089l-.048-.54-.027-.526v-3.049h1.135v10.637h-.923l-.15-1.006zm-2.269.191c.775 0 1.337-.211 1.686-.632.349-.422.522-1.103.522-2.041v-.239c0-1.062-.177-1.819-.529-2.272-.354-.454-.917-.681-1.692-.681-.665 0-1.175.259-1.527.776-.354.517-.53 1.247-.53 2.19 0 .957.176 1.68.526 2.167.35.488.865.732 1.544.732zM775.062 141.543c0-.306.069-.537.209-.693.139-.158.338-.236.598-.236.265 0 .471.078.619.236.147.156.222.388.222.693 0 .296-.075.524-.226.684s-.355.239-.615.239a.802.802 0 0 1-.577-.216c-.154-.143-.23-.379-.23-.707z"/></g><path fill="#fff" d="m627.7 73h42v15.7h-42z"/><linearGradient id="b" x1="630.18" x2="668.15" y1="-466.07" y2="-434.21" gradientTransform="matrix(1 0 0 -1 0 -368)" gradientUnits="userSpaceOnUse"><stop offset="0" stop-color="#f3797a"/><stop offset="1" stop-color="#f89521"/></linearGradient><path fill="url(#b)" d="M659.2 55.5l-22.5 31.1H648l-8.9 22.2 22.8-30-11.2-.1z"/><g fill="#7c7d7d"><path d="M832.227 128.203c0 1.859-.465 3.305-1.395 4.336s-2.246 1.547-3.949 1.547c-1.725 0-3.049-.512-3.973-1.535-.925-1.023-1.387-2.478-1.387-4.363s.465-3.333 1.395-4.344 2.256-1.516 3.98-1.516c1.697 0 3.01.513 3.938 1.539.927 1.027 1.391 2.472 1.391 4.336zm-8.719 0c0 1.406.283 2.473.852 3.199.567.727 1.408 1.09 2.523 1.09 1.109 0 1.946-.359 2.512-1.078.564-.719.848-1.789.848-3.211 0-1.401-.28-2.464-.84-3.188-.561-.724-1.395-1.086-2.504-1.086-1.12 0-1.965.362-2.535 1.086s-.856 1.787-.856 3.188zM838.867 125.133c.369 0 .674.026.914.078l-.18 1.711a3.498 3.498 0 0 0-.812-.094c-.734 0-1.33.239-1.785.719-.456.479-.684 1.102-.684 1.867v4.516h-1.836v-8.641h1.438l.242 1.523h.094c.286-.516.66-.925 1.121-1.227s.957-.452 1.488-.452zM841.273 123c0-.328.09-.581.27-.758s.436-.266.77-.266c.322 0 .574.089.754.266s.27.43.27.758c0 .312-.09.559-.27.738s-.432.27-.754.27c-.334 0-.59-.09-.77-.27s-.27-.426-.27-.738zm1.946 10.93h-1.836v-8.641h1.836v8.641zM853.141 125.289v1.008l-1.477.273c.135.183.247.406.336.672.088.266.133.547.133.844 0 .891-.308 1.591-.922 2.102-.615.511-1.461.766-2.539.766a4.18 4.18 0 0 1-.75-.062c-.396.245-.594.531-.594.859 0 .198.092.347.277.445.185.099.524.148 1.02.148h1.508c.953 0 1.677.203 2.172.609.494.406.742.992.742 1.758 0 .979-.404 1.734-1.211 2.266-.808.531-1.975.797-3.5.797-1.178 0-2.076-.208-2.695-.625-.62-.417-.93-1.011-.93-1.781 0-.531.168-.978.504-1.34s.806-.613 1.41-.754a1.37 1.37 0 0 1-.605-.504 1.27 1.27 0 0 1-.238-.73c0-.323.091-.597.273-.82.182-.224.453-.445.812-.664a2.403 2.403 0 0 1-1.09-.941c-.279-.435-.418-.944-.418-1.527 0-.938.295-1.664.887-2.18.591-.516 1.434-.773 2.527-.773.244 0 .501.017.77.051.268.034.47.069.605.105h2.993zm-6.789 9.984c0 .396.178.7.535.914.356.214.857.32 1.504.32 1 0 1.744-.144 2.234-.43.489-.286.734-.667.734-1.141 0-.375-.135-.642-.402-.801-.269-.159-.768-.238-1.496-.238h-1.391c-.526 0-.944.124-1.254.371-.31.249-.464.584-.464 1.005zm.789-7.187c0 .542.139.958.418 1.25.278.292.678.438 1.199.438 1.062 0 1.594-.567 1.594-1.703 0-.562-.132-.996-.395-1.301-.264-.305-.663-.457-1.199-.457-.531 0-.934.151-1.207.453s-.41.742-.41 1.32zM854.633 123c0-.328.09-.581.27-.758s.436-.266.77-.266c.322 0 .574.089.754.266s.27.43.27.758c0 .312-.09.559-.27.738s-.432.27-.754.27c-.334 0-.59-.09-.77-.27s-.27-.426-.27-.738zm1.945 10.93h-1.836v-8.641h1.836v8.641zM866.805 133.93h-1.844v-5.312c0-.667-.135-1.164-.402-1.492-.269-.328-.694-.492-1.277-.492-.776 0-1.344.229-1.703.688s-.539 1.227-.539 2.305v4.305h-1.836v-8.641h1.438l.258 1.133h.094c.26-.411.63-.729 1.109-.953a3.716 3.716 0 0 1 1.594-.336c2.072 0 3.109 1.055 3.109 3.164v5.631zM879.32 131.469c0 .844-.308 1.491-.922 1.941-.615.45-1.495.676-2.641.676-1.151 0-2.076-.175-2.773-.523v-1.586c1.016.469 1.961.703 2.836.703 1.13 0 1.695-.341 1.695-1.023 0-.219-.062-.401-.188-.547s-.331-.297-.617-.453a10.846 10.846 0 0 0-1.195-.531c-.995-.386-1.668-.771-2.02-1.156s-.527-.886-.527-1.5c0-.739.298-1.313.895-1.723.596-.409 1.407-.613 2.434-.613 1.016 0 1.977.206 2.883.617l-.594 1.383c-.933-.386-1.717-.578-2.352-.578-.969 0-1.453.276-1.453.828 0 .271.126.5.379.688.252.188.803.445 1.652.773.713.276 1.231.528 1.555.758.322.229.562.493.719.793s.234.656.234 1.073zM885.078 134.086c-1.344 0-2.395-.392-3.152-1.176s-1.137-1.863-1.137-3.238c0-1.411.352-2.521 1.055-3.328s1.669-1.211 2.898-1.211c1.141 0 2.041.347 2.703 1.039.661.692.992 1.646.992 2.859v.992h-5.758c.025.839.252 1.483.68 1.934.427.45 1.028.676 1.805.676.51 0 .985-.048 1.426-.145a7.631 7.631 0 0 0 1.418-.48v1.492a5.64 5.64 0 0 1-1.359.453 8.32 8.32 0 0 1-1.571.133zm-.336-7.563c-.584 0-1.051.185-1.402.555s-.562.909-.629 1.617h3.922c-.011-.714-.183-1.254-.516-1.621-.334-.367-.792-.551-1.375-.551zM894.906 125.133c.369 0 .674.026.914.078l-.18 1.711a3.498 3.498 0 0 0-.812-.094c-.734 0-1.33.239-1.785.719-.456.479-.684 1.102-.684 1.867v4.516h-1.836v-8.641h1.438l.242 1.523h.094c.286-.516.66-.925 1.121-1.227s.957-.452 1.488-.452zM899.391 133.93l-3.281-8.641h1.938l1.758 5.023c.302.844.484 1.526.547 2.047h.062c.047-.375.229-1.058.547-2.047l1.758-5.023h1.953l-3.297 8.641h-1.985zM909.758 134.086c-1.344 0-2.395-.392-3.152-1.176s-1.137-1.863-1.137-3.238c0-1.411.352-2.521 1.055-3.328s1.669-1.211 2.898-1.211c1.141 0 2.041.347 2.703 1.039.661.692.992 1.646.992 2.859v.992h-5.758c.025.839.252 1.483.68 1.934.427.45 1.028.676 1.805.676.51 0 .985-.048 1.426-.145a7.631 7.631 0 0 0 1.418-.48v1.492a5.64 5.64 0 0 1-1.359.453 8.32 8.32 0 0 1-1.571.133zm-.336-7.563c-.584 0-1.051.185-1.402.555s-.562.909-.629 1.617h3.922c-.011-.714-.183-1.254-.516-1.621-.334-.367-.792-.551-1.375-.551zM919.586 125.133c.369 0 .674.026.914.078l-.18 1.711a3.498 3.498 0 0 0-.812-.094c-.734 0-1.33.239-1.785.719-.456.479-.684 1.102-.684 1.867v4.516h-1.836v-8.641h1.438l.242 1.523h.094c.286-.516.66-.925 1.121-1.227s.957-.452 1.488-.452z"/><path d="M831.276 151.93l-1.117-4.031c-.136-.427-.38-1.419-.734-2.977h-.07c-.302 1.406-.542 2.403-.719 2.992l-1.148 4.016h-2.031l-2.422-8.641h1.875l1.102 4.258c.25 1.052.427 1.953.531 2.703h.047c.052-.38.132-.816.238-1.309s.199-.86.277-1.105l1.312-4.547h2.016l1.273 4.547c.078.255.176.646.293 1.172s.187.935.207 1.227h.062c.078-.641.261-1.536.547-2.688l1.117-4.258h1.844l-2.438 8.641h-2.062zM837.151 141c0-.328.09-.581.27-.758s.437-.266.77-.266c.323 0 .574.089.754.266s.27.43.27.758c0 .312-.09.559-.27.738s-.431.27-.754.27c-.333 0-.59-.09-.77-.27s-.27-.426-.27-.738zm1.946 10.93h-1.836v-8.641h1.836v8.641zM844.94 150.602c.448 0 .896-.07 1.344-.211v1.383c-.203.089-.465.163-.785.223s-.652.09-.996.09c-1.739 0-2.609-.917-2.609-2.75v-4.656h-1.18v-.812l1.266-.672.625-1.828h1.133v1.922h2.461v1.391h-2.461v4.625c0 .442.11.77.332.98s.511.315.87.315zM855.612 151.93h-1.844v-5.312c0-.667-.134-1.164-.402-1.492s-.694-.492-1.277-.492c-.771 0-1.337.23-1.699.691s-.543 1.233-.543 2.316v4.289h-1.836v-12.156h1.836v3.086c0 .495-.031 1.023-.094 1.586h.117c.25-.417.598-.739 1.043-.969s.965-.344 1.559-.344c2.094 0 3.141 1.055 3.141 3.164v5.633zM864.386 147.367v4.562h-1.867v-11.422h3.227c1.474 0 2.565.276 3.273.828s1.062 1.386 1.062 2.5c0 1.422-.739 2.435-2.219 3.039l3.227 5.055h-2.125l-2.734-4.562h-1.844zm0-1.547h1.297c.87 0 1.5-.161 1.891-.484s.586-.802.586-1.438c0-.646-.211-1.109-.633-1.391s-1.058-.422-1.906-.422h-1.234v3.735zM877.956 151.93l-.367-1.203h-.062c-.417.526-.836.884-1.258 1.074s-.964.285-1.625.285c-.849 0-1.512-.229-1.988-.688s-.715-1.106-.715-1.945c0-.891.331-1.562.992-2.016s1.669-.7 3.023-.742l1.492-.047v-.461c0-.552-.129-.965-.387-1.238s-.657-.41-1.199-.41c-.442 0-.867.065-1.273.195s-.797.284-1.172.461l-.594-1.312c.469-.245.981-.431 1.539-.559s1.083-.191 1.578-.191c1.099 0 1.929.239 2.488.719s.84 1.231.84 2.258v5.82h-1.312zm-2.734-1.25c.667 0 1.202-.187 1.605-.559s.605-.895.605-1.566v-.75l-1.109.047c-.864.031-1.493.176-1.887.434s-.59.652-.59 1.184c0 .386.114.684.344.895s.574.315 1.032.315zM881.722 141c0-.328.09-.581.27-.758s.437-.266.77-.266c.323 0 .574.089.754.266s.27.43.27.758c0 .312-.09.559-.27.738s-.431.27-.754.27c-.333 0-.59-.09-.77-.27s-.27-.426-.27-.738zm1.945 10.93h-1.836v-8.641h1.836v8.641zM888.128 151.93h-1.836v-12.156h1.836v12.156zM898.05 143.289v1.008l-1.477.273a2.64 2.64 0 0 1 .469 1.516c0 .891-.308 1.591-.922 2.102s-1.461.766-2.539.766a4.18 4.18 0 0 1-.75-.062c-.396.245-.594.531-.594.859 0 .198.093.347.277.445s.524.148 1.02.148h1.508c.953 0 1.677.203 2.172.609s.742.992.742 1.758c0 .979-.403 1.734-1.211 2.266s-1.974.797-3.5.797c-1.177 0-2.075-.208-2.695-.625s-.93-1.011-.93-1.781c0-.531.168-.978.504-1.34s.806-.613 1.41-.754c-.245-.104-.446-.272-.605-.504s-.238-.476-.238-.73c0-.323.091-.597.273-.82s.453-.445.812-.664c-.448-.192-.812-.507-1.09-.941s-.418-.944-.418-1.527c0-.938.296-1.664.887-2.18s1.434-.773 2.527-.773c.245 0 .501.017.77.051s.47.069.605.105h2.993zm-6.789 9.984c0 .396.179.7.535.914s.858.32 1.504.32c1 0 1.745-.144 2.234-.43s.734-.667.734-1.141c0-.375-.134-.642-.402-.801s-.767-.238-1.496-.238h-1.391c-.526 0-.944.124-1.254.371s-.464.584-.464 1.005zm.789-7.187c0 .542.14.958.418 1.25s.679.438 1.199.438c1.062 0 1.594-.567 1.594-1.703 0-.562-.132-.996-.395-1.301s-.663-.457-1.199-.457c-.531 0-.934.151-1.207.453s-.41.742-.41 1.32zM905.745 151.93l-.258-1.133h-.094c-.255.401-.618.716-1.09.945s-1.009.344-1.613.344c-1.047 0-1.828-.261-2.344-.781s-.773-1.31-.773-2.367v-5.648h1.852v5.328c0 .661.136 1.157.406 1.488s.695.496 1.273.496c.771 0 1.337-.23 1.699-.691s.543-1.233.543-2.316v-4.305h1.844v8.641h-1.445zM917.409 151.93h-1.844v-5.312c0-.667-.134-1.164-.402-1.492s-.694-.492-1.277-.492c-.776 0-1.344.229-1.703.688s-.539 1.227-.539 2.305v4.305h-1.836v-8.641h1.438l.258 1.133h.094c.261-.411.63-.729 1.109-.953s1.011-.336 1.594-.336c2.073 0 3.109 1.055 3.109 3.164v5.631z"/></g><linearGradient id="c" x1="826.75" x2="910.15" y1="-483.99" y2="-414.01" gradientTransform="matrix(1 0 0 -1 0 -368)" gradientUnits="userSpaceOnUse"><stop offset=".605" stop-color="#f7935c"/><stop offset="1" stop-color="#ffdb70"/></linearGradient><path fill="#fff" stroke="url(#c)" stroke-miterlimit="10" stroke-width="3" d="M921.6 99.2H815.3c-.8 0-1.5-.7-1.5-1.5V64.3c0-.8.7-1.5 1.5-1.5h106.3c.8 0 1.5.7 1.5 1.5v33.4c0 .8-.7 1.5-1.5 1.5z"/><linearGradient id="d" x1="857.16" x2="864.21" y1="-445.46" y2="-452.51" gradientTransform="matrix(1 0 0 -1 0 -368)" gradientUnits="userSpaceOnUse"><stop offset=".605" stop-color="#f7935c"/><stop offset="1" stop-color="#ffdb70"/></linearGradient><path fill="none" stroke="url(#d)" stroke-miterlimit="10" stroke-width="1.5" d="m860.7 74.7v12.6"/><linearGradient id="e" x1="864.98" x2="872.04" y1="-445.48" y2="-452.54" gradientTransform="matrix(1 0 0 -1 0 -368)" gradientUnits="userSpaceOnUse"><stop offset=".605" stop-color="#f7935c"/><stop offset="1" stop-color="#ffdb70"/></linearGradient><path fill="none" stroke="url(#e)" stroke-miterlimit="10" stroke-width="1.5" d="m868.5 74.7v12.6"/><linearGradient id="f" x1="872.86" x2="879.91" y1="-445.46" y2="-452.51" gradientTransform="matrix(1 0 0 -1 0 -368)" gradientUnits="userSpaceOnUse"><stop offset=".605" stop-color="#f7935c"/><stop offset="1" stop-color="#ffdb70"/></linearGradient><path fill="none" stroke="url(#f)" stroke-miterlimit="10" stroke-width="1.5" d="m876.4 74.7v12.6"/><linearGradient id="g" x1="880.69" x2="887.74" y1="-445.49" y2="-452.54" gradientTransform="matrix(1 0 0 -1 0 -368)" gradientUnits="userSpaceOnUse"><stop offset=".605" stop-color="#f7935c"/><stop offset="1" stop-color="#ffdb70"/></linearGradient><path fill="none" stroke="url(#g)" stroke-miterlimit="10" stroke-width="1.5" d="m884.2 74.7v12.6"/><linearGradient id="h" x1="825.7" x2="832.74" y1="-445.5" y2="-452.55" gradientTransform="matrix(1 0 0 -1 0 -368)" gradientUnits="userSpaceOnUse"><stop offset=".605" stop-color="#f7935c"/><stop offset="1" stop-color="#ffdb70"/></linearGradient><path fill="none" stroke="url(#h)" stroke-miterlimit="10" stroke-width="1.5" d="m829.2 74.7v12.6"/><linearGradient id="i" x1="833.58" x2="840.62" y1="-445.48" y2="-452.52" gradientTransform="matrix(1 0 0 -1 0 -368)" gradientUnits="userSpaceOnUse"><stop offset=".605" stop-color="#f7935c"/><stop offset="1" stop-color="#ffdb70"/></linearGradient><path fill="none" stroke="url(#i)" stroke-miterlimit="10" stroke-width="1.5" d="m837.1 74.7v12.6"/><linearGradient id="j" x1="841.4" x2="848.45" y1="-445.5" y2="-452.55" gradientTransform="matrix(1 0 0 -1 0 -368)" gradientUnits="userSpaceOnUse"><stop offset=".605" stop-color="#f7935c"/><stop offset="1" stop-color="#ffdb70"/></linearGradient><path fill="none" stroke="url(#j)" stroke-miterlimit="10" stroke-width="1.5" d="m844.9 74.7v12.6"/><linearGradient id="k" x1="849.28" x2="856.32" y1="-445.48" y2="-452.52" gradientTransform="matrix(1 0 0 -1 0 -368)" gradientUnits="userSpaceOnUse"><stop offset=".605" stop-color="#f7935c"/><stop offset="1" stop-color="#ffdb70"/></linearGradient><path fill="none" stroke="url(#k)" stroke-miterlimit="10" stroke-width="1.5" d="m852.8 74.7v12.6"/><linearGradient id="l" x1="888.58" x2="895.62" y1="-445.48" y2="-452.52" gradientTransform="matrix(1 0 0 -1 0 -368)" gradientUnits="userSpaceOnUse"><stop offset=".605" stop-color="#f7935c"/><stop offset="1" stop-color="#ffdb70"/></linearGradient><path fill="none" stroke="url(#l)" stroke-miterlimit="10" stroke-width="1.5" d="m892.1 74.7v12.6"/><linearGradient id="m" x1="896.4" x2="903.45" y1="-445.5" y2="-452.55" gradientTransform="matrix(1 0 0 -1 0 -368)" gradientUnits="userSpaceOnUse"><stop offset=".605" stop-color="#f7935c"/><stop offset="1" stop-color="#ffdb70"/></linearGradient><path fill="none" stroke="url(#m)" stroke-miterlimit="10" stroke-width="1.5" d="m899.9 74.7v12.6"/><linearGradient id="n" x1="904.28" x2="911.32" y1="-445.48" y2="-452.52" gradientTransform="matrix(1 0 0 -1 0 -368)" gradientUnits="userSpaceOnUse"><stop offset=".605" stop-color="#f7935c"/><stop offset="1" stop-color="#ffdb70"/></linearGradient><path fill="none" stroke="url(#n)" stroke-miterlimit="10" stroke-width="1.5" d="m907.8 74.7v12.6"/><linearGradient id="o" x1="844.52" x2="892.18" y1="-493.7" y2="-453.7" gradientTransform="matrix(1 0 0 -1 0 -368)" gradientUnits="userSpaceOnUse"><stop offset=".605" stop-color="#f7935c"/><stop offset="1" stop-color="#ffdb70"/></linearGradient><path fill="none" stroke="url(#o)" stroke-miterlimit="10" stroke-width="3" d="m829 105.7h78.7"/><circle cx="919.2" cy="92.3" r="21.9" fill="#fff"/><circle cx="919.2" cy="92.3" r="18.8" fill="#f7935a"/><path fill="#fff" d="M928.8 99.5c2.4 0 4.3-1.9 4.3-4.3s-1.9-4.3-4.3-4.3v-.2c0-4.1-3.3-7.4-7.5-7.4-3.4 0-6.2 2.2-7.1 5.3-.6-.3-1.2-.4-1.8-.4-2.4 0-4.3 1.9-4.3 4.3 0 .6.1 1.1.3 1.6h-.1c-1.5 0-2.8 1.2-2.8 2.8 0 1.5 1.2 2.8 2.8 2.8h20.5v-.2z"/><g fill="#85cba8"><path d="M11.098 131.872h1.43l-4.117 11.422H7.098l-4.094-11.422H4.41l2.625 7.391c.302.849.542 1.675.719 2.477.188-.844.432-1.685.734-2.523l2.61-7.345zM13.793 132.411c0-.297.073-.515.219-.652a.765.765 0 0 1 .547-.207c.208 0 .388.07.539.211.151.141.227.356.227.648s-.076.509-.227.652a.754.754 0 0 1-.539.215.746.746 0 0 1-.547-.215c-.146-.143-.219-.36-.219-.652zm1.407 10.883h-1.297v-8.562H15.2v8.562zM23.473 140.958c0 .797-.297 1.411-.891 1.844s-1.427.648-2.5.648c-1.136 0-2.021-.18-2.656-.539v-1.203a6.45 6.45 0 0 0 1.324.492c.471.12.926.18 1.363.18.677 0 1.198-.108 1.562-.324.364-.216.547-.546.547-.988 0-.333-.145-.618-.434-.855s-.853-.517-1.691-.84c-.797-.297-1.363-.556-1.699-.777s-.586-.473-.75-.754-.246-.617-.246-1.008c0-.698.284-1.249.852-1.652.567-.403 1.346-.605 2.336-.605a6.85 6.85 0 0 1 2.703.562l-.461 1.055c-.859-.354-1.638-.531-2.336-.531-.615 0-1.078.097-1.391.289s-.469.458-.469.797c0 .229.059.425.176.586s.306.315.566.461c.26.146.76.356 1.5.633 1.016.37 1.702.742 2.059 1.117.357.373.536.845.536 1.412zM25.473 132.411c0-.297.073-.515.219-.652a.765.765 0 0 1 .547-.207c.208 0 .388.07.539.211.151.141.227.356.227.648s-.076.509-.227.652a.754.754 0 0 1-.539.215.746.746 0 0 1-.547-.215c-.146-.143-.219-.36-.219-.652zm1.406 10.883h-1.297v-8.562h1.297v8.562zM32.395 142.38c.229 0 .45-.017.664-.051a4.47 4.47 0 0 0 .508-.105v.992c-.141.067-.348.124-.621.168s-.52.066-.738.066c-1.656 0-2.484-.872-2.484-2.617v-5.094h-1.227v-.625l1.227-.539.547-1.828h.75v1.984h2.484v1.008H31.02v5.039c0 .516.122.911.367 1.188.245.276.581.414 1.008.414zM42.668 139.005c0 1.396-.352 2.485-1.055 3.27s-1.675 1.176-2.914 1.176c-.766 0-1.445-.18-2.039-.539s-1.052-.875-1.375-1.547c-.323-.672-.484-1.458-.484-2.359 0-1.396.349-2.483 1.047-3.262.698-.778 1.667-1.168 2.906-1.168 1.198 0 2.149.398 2.855 1.195.706.796 1.059 1.875 1.059 3.234zm-6.523 0c0 1.094.219 1.927.656 2.5s1.081.859 1.93.859 1.493-.285 1.934-.855c.44-.57.66-1.405.66-2.504 0-1.089-.22-1.915-.66-2.48-.44-.565-1.09-.848-1.949-.848-.849 0-1.49.278-1.922.836-.433.557-.649 1.387-.649 2.492zM48.848 134.575c.38 0 .721.031 1.023.094l-.18 1.203a4.426 4.426 0 0 0-.938-.117c-.693 0-1.285.281-1.777.844s-.738 1.263-.738 2.102v4.594h-1.297v-8.562h1.07l.148 1.586h.062c.317-.558.7-.987 1.148-1.289.45-.303.943-.455 1.479-.455z"/></g></svg>